<svg xmlns="http://www.w3.org/2000/svg" width="103.736" height="63.694" viewBox="0 0 103.736 63.694"><defs><style>.a{fill:#f2f5f8;}.b{fill:#725e4f;}.c{fill:#80cbc4;}.d{fill:#6da196;}.e{fill:#b2dfdb;}.f{fill:#8b7561;}.g{fill:#adadea;}.h{fill:#a08c7a;}.i{fill:#8765db;}.j{fill:#e5e8f5;}.k{fill:#56557e;}.l{fill:#c1b5a9;}.m{fill:#e2555b;}.n{fill:#9499ea;}.o{fill:#94d3cc;}.p{fill:#7a7fd1;}.q{fill:#ff6369;}.r{fill:#694a52;}.s{fill:#f6b89f;}.t{fill:#efa88f;}.u{fill:#37474f;}.v{fill:#fff;}.w{fill:#8f97b9;}.x{fill:#ffdfae;}.y{fill:#f9b25f;}.z{fill:#4d5b62;}.aa{fill:#f7d9b0;}.ab{fill:#f4ca92;}.ac{fill:#adadad;}.ad{fill:#bfbfbf;}.ae{fill:#be353b;}</style></defs><path class="a" d="M211.61,219.064c-6.213-10.963,2.4-24.788-5.967-29.2-15.894-8.385-8.979-22.238-21.651-25.924-7.918-2.3-19.326,3.419-27.725,10.947-6.391,5.729-27.353-12.659-38.283,5.032-3.715,6.012-16.836,16-3.55,21.626,16.752,7.093-7.434,34.342,28.242,22.731C153.609,220.718,220.086,234.019,211.61,219.064Z" transform="translate(-108.618 -163.424)"/><g transform="translate(7.243 19.229)"><path class="b" d="M3.54,0h71.4a3.54,3.54,0,0,1,3.54,3.54V25.746a3.54,3.54,0,0,1-3.54,3.54H3.54A3.54,3.54,0,0,1,0,25.746V3.54A3.54,3.54,0,0,1,3.54,0Z" transform="translate(0 8.888)"/><g transform="translate(5.039 0)"><path class="c" d="M339.123,490.363c.082-.522-3.567-19.107-3.567-19.107s-49.219,9.01-61.715,3.18c-.471-.22-1.351,24.186-1.351,24.186S337.635,499.816,339.123,490.363Z" transform="translate(-272.49 -465.765)"/><path class="d" d="M309.747,514.052c-5.7,0-9.536-.1-9.609-.1l-.386-.01.022-.386c0-.049.278-4.972.6-9.865.191-2.875.361-5.178.507-6.844.29-3.322.394-3.386.6-3.513a.39.39,0,0,1,.362-.024c5.761,2.562,20.675,1.287,32.171-.233,12.5-1.653,23.762-3.95,23.874-3.973l.36-.074.08.359c.01.042.962,4.3,1.864,8.557.53,2.5.939,4.516,1.217,5.986.55,2.915.468,3.035.355,3.2-1.335,1.961-5.309,3.47-12.152,4.613a180.8,180.8,0,0,1-20.863,1.913C321.817,513.971,314.991,514.052,309.747,514.052Zm-9.2-.838c2.353.051,15.066.283,28.182-.3,23.811-1.061,30.77-3.907,32.38-6.134.011-1.077-2.045-10.7-3.423-16.865-2.028.405-12.294,2.418-23.561,3.908a186.361,186.361,0,0,1-18.853,1.676c-6.174.166-10.659-.285-13.344-1.341C301.584,496.159,300.936,506.232,300.543,513.214Zm60.607-6.5h0Z" transform="translate(-297.709 -482.21)"/><g transform="translate(28.005 15.159)"><g transform="translate(0 0.717)"><path class="d" d="M647.844,618.223a13.335,13.335,0,0,0,3.991.285c2.185-.181,3.29-.928,3.042-1.857-.23-.861-1.245-1.28-3.607-1.573-2.843-.31-4.72-.95-5.067-2.248-.383-1.435,1.469-2.677,4.685-2.943a13.41,13.41,0,0,1,3.778.148l-.33,1.019a11.685,11.685,0,0,0-3.259-.177c-2.259.187-2.917,1.009-2.75,1.638.23.861,1.349,1.2,3.764,1.5,2.959.37,4.584,1,4.945,2.356.379,1.421-1.183,2.807-5.087,3.13a15.178,15.178,0,0,1-4.38-.238Z" transform="translate(-646.153 -609.824)"/></g><path class="d" d="M687.731,601.726l-1.781.147-.392-1.468,1.781-.147Z" transform="translate(-682.604 -600.258)"/><path class="d" d="M721.4,727.877l-1.781.147-.392-1.468,1.781-.147Z" transform="translate(-713.752 -716.954)"/></g><path class="d" d="M1040.721,497.718a2.893,2.893,0,0,1-2.72.588c-1.042-.256-1.515-.934-1.056-1.515a8.588,8.588,0,0,1,2.166.256A4.56,4.56,0,0,1,1040.721,497.718Z" transform="translate(-979.49 -489.376)"/><path class="d" d="M1075.25,714.9c-1.35-.215-2.141-.981-1.766-1.71s1.773-1.146,3.123-.931a1.87,1.87,0,0,1-.174,1.472A2.976,2.976,0,0,1,1075.25,714.9Z" transform="translate(-1013.365 -688.653)"/><path class="d" d="M316.275,555.974c.617.534.34,1.245-.618,1.588a3.177,3.177,0,0,1-2.851-.345,2.21,2.21,0,0,1,1.3-1.143A4.956,4.956,0,0,1,316.275,555.974Z" transform="translate(-309.782 -544.063)"/><path class="d" d="M300.749,791.778a3.328,3.328,0,0,1,2.917-.04c.826.438.859,1.165.073,1.625a5.817,5.817,0,0,1-2.3-.433A1.176,1.176,0,0,1,300.749,791.778Z" transform="translate(-298.615 -761.935)"/><ellipse class="d" cx="5.958" cy="3.316" rx="5.958" ry="3.316" transform="translate(8.933 18.292)"/><ellipse class="d" cx="5.958" cy="3.316" rx="5.958" ry="3.316" transform="translate(45.942 15.3)"/><path class="e" d="M360.872,422.238c.149-.507-1.28-20.882-1.28-20.882S309.838,405.394,298.2,398c-.439-.279-4.471,23.808-4.471,23.808S358.173,431.419,360.872,422.238Z" transform="translate(-292.139 -397.993)"/><path class="d" d="M368.842,458.842c-4.809,0-10.623-.289-17.344-.864-14.447-1.235-28.276-3.392-28.414-3.414l-.381-.06.071-.379c.009-.048.919-4.895,1.875-9.7.561-2.826,1.029-5.087,1.388-6.721.718-3.257.829-3.306,1.051-3.405a.391.391,0,0,1,.363.023c5.381,3.287,20.336,3.95,31.935,3.933,12.606-.022,24.069-.841,24.183-.849l.367-.027.033.367c0,.043.4,4.388.741,8.727.2,2.55.347,4.6.432,6.093.168,2.961.072,3.07-.062,3.22h0c-1.577,1.772-5.714,2.754-12.647,3Q370.744,458.843,368.842,458.842Zm-45.26-4.959c2.326.355,14.9,2.231,27.984,3.349,23.748,2.03,31.017.108,32.9-1.892.15-1.068-.644-10.871-1.211-17.166-2.063.139-12.5.806-23.869.826a186.59,186.59,0,0,1-18.911-.778c-6.144-.634-10.532-1.662-13.058-3.057C326.821,437.107,324.874,447.011,323.581,453.883Zm60.876,1.506h0Zm.062-.107h0Z" transform="translate(-318.939 -431.543)"/><g transform="translate(31.207 10.415)"><g transform="translate(0 0.842)"><path class="d" d="M689.813,556.069a13.341,13.341,0,0,0,3.92.8c2.19.1,3.383-.495,3.257-1.448-.116-.883-1.069-1.43-3.373-2.027-2.779-.675-4.557-1.553-4.733-2.885-.194-1.472,1.8-2.464,5.026-2.312a13.4,13.4,0,0,1,3.727.636l-.459.967a11.684,11.684,0,0,0-3.209-.6c-2.264-.107-3.024.623-2.938,1.268.116.883,1.182,1.366,3.538,1.979,2.886.75,4.415,1.589,4.6,2.976.192,1.458-1.536,2.63-5.449,2.445a15.179,15.179,0,0,1-4.312-.8Z" transform="translate(-688.872 -548.181)"/></g><path class="d" d="M735.616,538.542l-1.785-.084-.2-1.507,1.785.085Z" transform="translate(-730.278 -536.951)"/><path class="d" d="M752.677,667.99l-1.785-.084-.2-1.507,1.785.085Z" transform="translate(-746.06 -656.698)"/></g><path class="d" d="M1098.007,479.7a1.986,1.986,0,0,1-2.268.195c-1-.389-1.382-1.123-.851-1.639a8.573,8.573,0,0,1,2.114.534C1097.881,479.133,1098.04,479.669,1098.007,479.7Z" transform="translate(-1033.03 -472.238)"/><path class="d" d="M1103.221,702.628c-1.311-.388-2-1.25-1.53-1.924s1.906-.907,3.217-.519a1.87,1.87,0,0,1-.363,1.437A2.975,2.975,0,0,1,1103.221,702.628Z" transform="translate(-1039.409 -677.363)"/><path class="d" d="M374.506,446.822c.542.609.176,1.278-.819,1.495a2.655,2.655,0,0,1-2.526-.678,1.458,1.458,0,0,1,1.179-1A4.955,4.955,0,0,1,374.506,446.822Z" transform="translate(-363.764 -442.94)"/><path class="d" d="M326.74,677.138a3.328,3.328,0,0,1,2.9.337c.762.541.7,1.266-.138,1.62a5.817,5.817,0,0,1-2.227-.727A1.176,1.176,0,0,1,326.74,677.138Z" transform="translate(-322.643 -656.04)"/><ellipse class="d" cx="3.316" cy="5.958" rx="3.316" ry="5.958" transform="translate(11.477 17.101) rotate(-82.563)"/><ellipse class="d" cx="3.316" cy="5.958" rx="3.316" ry="5.958" transform="translate(48.561 18.924) rotate(-82.563)"/></g><path class="f" d="M304.339,600.768h-67.79a3.033,3.033,0,0,1-3.026-3.023V577.563h73.843v20.182A3.034,3.034,0,0,1,304.339,600.768Z" transform="translate(-231.404 -564.105)"/><path class="g" d="M2.124,0H29.488a2.124,2.124,0,0,1,2.124,2.124V13.077A2.124,2.124,0,0,1,29.488,15.2H2.124A2.124,2.124,0,0,1,0,13.077V2.124A2.124,2.124,0,0,1,2.124,0Z" transform="translate(3.873 11.466)"/><path class="h" d="M269.2,617.717H237.615a3.66,3.66,0,0,1-3.65-3.65V603.693c0-2.007.017-3.649.017-3.649H269.2Z" transform="translate(-231.813 -584.901)"/><path class="i" d="M2.124,0H29.488a2.124,2.124,0,0,1,2.124,2.124V13.077A2.124,2.124,0,0,1,29.488,15.2H2.124A2.124,2.124,0,0,1,0,13.077V2.124A2.124,2.124,0,0,1,2.124,0Z" transform="translate(3.873 14.821)"/><path class="f" d="M269.2,662.48H237.615a3.66,3.66,0,0,1-3.65-3.65V648.457c0-2.007.017-3.65.017-3.65H269.2Z" transform="translate(-231.813 -626.309)"/><ellipse class="j" cx="5.782" cy="5.782" rx="5.782" ry="5.782" transform="translate(13.861 16.578)"/><path class="k" d="M2.124,0H29.488a2.124,2.124,0,0,1,2.124,2.124V13.077A2.124,2.124,0,0,1,29.488,15.2H2.124A2.124,2.124,0,0,1,0,13.077V2.124A2.124,2.124,0,0,1,2.124,0Z" transform="translate(3.873 18.046)"/><path class="h" d="M267.844,702.767h-31.78a3.161,3.161,0,0,1-3.137-3.165v-8.119c0-2.007.016-3.649.016-3.649h34.9Z" transform="translate(-230.853 -666.11)"/><path class="b" d="M0,0A.667.667,0,0,1,.667.667v21.86A.667.667,0,0,1,0,23.193Z" transform="translate(36.991 13.461)"/><path class="b" d="M0,0A.667.667,0,0,1,.667.667V22.526A.667.667,0,0,1,0,23.193Z" transform="translate(43.516 36.654) rotate(-180)"/><g transform="translate(46.205 16.87)"><path class="l" d="M1.416,0h23.65a1.416,1.416,0,0,1,1.416,1.416V14.688A1.416,1.416,0,0,1,25.066,16.1H1.416A1.416,1.416,0,0,1,0,14.688V1.416A1.416,1.416,0,0,1,1.416,0Z" transform="translate(0.112 0.112)"/><path class="l" d="M846.873,639.417H823.34a1.589,1.589,0,0,1-1.587-1.587V624.676a1.589,1.589,0,0,1,1.587-1.587h23.532a1.589,1.589,0,0,1,1.587,1.587V637.83A1.589,1.589,0,0,1,846.873,639.417Zm-23.532-16.1a1.364,1.364,0,0,0-1.362,1.362V637.83a1.364,1.364,0,0,0,1.362,1.362h23.532a1.364,1.364,0,0,0,1.362-1.362V624.676a1.364,1.364,0,0,0-1.362-1.362Z" transform="translate(-821.753 -623.089)"/></g></g><g transform="translate(13.105 0)"><g transform="translate(13.891 9.621)"><path class="e" d="M473.434,279.78c.077-.057,2.374-2.578,2.374-2.578s-4.539-2.659-4.582-4.314c0-.062-3.4,2.817-3.4,2.817S472.041,280.809,473.434,279.78Z" transform="translate(-467.827 -272.887)"/><path class="d" d="M476.187,285.383c-1.625,0-4.673-3.769-4.81-3.94l-.046-.058.057-.047c.007-.006.7-.584,1.4-1.152,1.439-1.179,1.45-1.174,1.509-1.148l.042.019,0,.047c.069,1.409,4.271,3.694,4.314,3.717l.083.045-.062.071c-1.381,1.563-2.115,2.368-2.182,2.393h0A.857.857,0,0,1,476.187,285.383Zm-4.647-3.976c.421.513,3.565,4.268,4.891,3.787.124-.1,1.276-1.389,2.068-2.285-.6-.33-4.03-2.281-4.294-3.671C473.842,279.51,472.49,280.62,471.541,281.406Z" transform="translate(-471.068 -278.572)"/><g transform="translate(2.972 3.172)"><path class="d" d="M507.66,315.909a.776.776,0,0,0,.146.382c.134.18.307.214.445.112s.146-.222.08-.458c-.087-.281-.074-.5.118-.647a.489.489,0,0,1,.7.165.771.771,0,0,1,.158.351l-.18.058a.678.678,0,0,0-.128-.307c-.139-.186-.3-.174-.4-.1-.127.095-.128.224-.061.467.083.3.059.5-.141.646a.513.513,0,0,1-.747-.185.878.878,0,0,1-.172-.412Z" transform="translate(-507.479 -315.209)"/><path class="d" d="M0,0H.183V.271H0Z" transform="matrix(0.598, 0.802, -0.802, 0.598, 1.683, 0.038)"/><path class="d" d="M0,0H.183V.271H0Z" transform="matrix(0.598, 0.802, -0.802, 0.598, 0.285, 1.08)"/></g><path class="d" d="M564.1,328.266a.21.21,0,1,1-.127-.4.511.511,0,0,1,.11.2A.419.419,0,0,1,564.1,328.266Z" transform="translate(-556.629 -323.746)"/><path class="d" d="M535.053,358.2a.251.251,0,1,1,.452-.216.589.589,0,0,1-.213.164A.485.485,0,0,1,535.053,358.2Z" transform="translate(-529.991 -351.468)"/><path class="d" d="M506.8,281.354a.21.21,0,1,1-.4-.114.366.366,0,0,1,.244-.039A.289.289,0,0,1,506.8,281.354Z" transform="translate(-503.503 -280.57)"/><path class="d" d="M473.864,307.8a.21.21,0,0,1-.016.419.367.367,0,0,1-.1-.227A.289.289,0,0,1,473.864,307.8Z" transform="translate(-473.309 -305.184)"/><ellipse class="d" cx="0.605" cy="0.605" rx="0.605" ry="0.605" transform="translate(1.934 1.989)"/><ellipse class="d" cx="0.605" cy="0.605" rx="0.605" ry="0.605" transform="translate(4.83 4.445)"/></g><path class="e" d="M290.258,148c.009-.1-.326-3.49-.326-3.49s-5.015,1.592-6.272.515c-.047-.041-.183,4.411-.183,4.411S290.089,149.728,290.258,148Z" transform="translate(-283.477 -144.515)"/><path class="d" d="M287.148,151.973c-.712,0-1.228-.028-1.3-.032l-.074,0,0-.074c0-.009.038-.914.081-1.81.088-1.858.1-1.863.158-1.889l.042-.019.037.029c.447.365,1.561.359,3.222-.018a24.153,24.153,0,0,0,2.427-.7l.089-.032.011.094c.236,2.072.343,3.156.317,3.223C291.748,151.809,288.874,151.973,287.148,151.973Zm-1.214-.178a26.4,26.4,0,0,0,2.822-.027c1.906-.133,3.035-.5,3.266-1.071.009-.159-.178-1.878-.312-3.066-.646.223-4.392,1.467-5.6.732C286.066,148.816,285.985,150.564,285.934,151.795Z" transform="translate(-285.605 -147.209)"/><g transform="translate(2.821 1.731)"><g transform="translate(0 0.152)"><path class="d" d="M321.185,171.038a.777.777,0,0,0,.381.147c.223.021.365-.085.381-.256s-.067-.257-.287-.366c-.267-.124-.424-.283-.4-.521a.489.489,0,0,1,.59-.408.771.771,0,0,1,.366.118l-.077.173a.678.678,0,0,0-.314-.11c-.231-.021-.332.108-.342.224-.015.158.081.245.306.358.276.137.408.289.385.537s-.239.469-.638.432a.878.878,0,0,1-.422-.148Z" transform="translate(-321.113 -169.63)"/></g><path class="d" d="M0,0H.183V.271H0Z" transform="translate(0.587 0) rotate(5.332)"/><path class="d" d="M0,0H.183V.271H0Z" transform="translate(0.425 1.736) rotate(5.332)"/></g><path class="d" d="M362.11,149.269a.21.21,0,1,1-.382-.173.506.506,0,0,1,.219.049A.416.416,0,0,1,362.11,149.269Z" transform="translate(-355.846 -148.751)"/><path class="d" d="M365.183,188.957a.251.251,0,1,1,.143-.48.593.593,0,0,1-.021.268A.486.486,0,0,1,365.183,188.957Z" transform="translate(-358.887 -185.172)"/><path class="d" d="M288.424,159.161a.21.21,0,1,1-.355.223.367.367,0,0,1,.134-.207A.288.288,0,0,1,288.424,159.161Z" transform="translate(-287.725 -158.05)"/><path class="d" d="M286.42,202.152a.21.21,0,0,1,.3.292.367.367,0,0,1-.233-.081A.29.29,0,0,1,286.42,202.152Z" transform="translate(-286.198 -197.773)"/><ellipse class="d" cx="0.605" cy="0.605" rx="0.605" ry="0.605" transform="translate(0.928 2.285)"/><ellipse class="d" cx="0.605" cy="0.605" rx="0.605" ry="0.605" transform="translate(4.692 1.778)"/><g transform="translate(71.039 1.649)"><path class="e" d="M1226.33,170.146c.023.093,1.475,3.179,1.475,3.179s4.192-3.178,5.738-2.584c.058.022-1.3-4.218-1.3-4.218S1225.912,168.466,1226.33,170.146Z" transform="translate(-1226.31 -166.523)"/><path class="d" d="M1230.592,176.06l-.041-.085c-.916-1.873-1.38-2.86-1.378-2.931h0c.05-1.614,5.323-3.175,5.547-3.24l.071-.021.022.07c0,.009.27.874.53,1.732.539,1.78.53,1.788.484,1.833l-.033.032-.044-.015c-.544-.194-1.591.185-3.031,1.1a24.134,24.134,0,0,0-2.052,1.47Zm-1.269-3.02c.045.152.8,1.71,1.321,2.785.533-.426,3.648-2.852,5.034-2.565-.114-.44-.622-2.114-.986-3.292a26.41,26.41,0,0,0-2.65.97C1230.29,171.7,1229.35,172.428,1229.323,173.041Z" transform="translate(-1228.958 -169.539)"/><g transform="translate(2.84 2.198)"><g transform="translate(0 0.092)"><path class="d" d="M1265.118,197.3a.777.777,0,0,0-.408-.011c-.217.055-.315.2-.273.368s.149.22.393.249c.293.027.494.124.553.356a.489.489,0,0,1-.419.582.773.773,0,0,1-.385.012l.015-.188a.676.676,0,0,0,.333,0c.225-.057.276-.213.248-.325-.039-.154-.158-.2-.408-.235-.306-.037-.481-.135-.543-.377s.068-.522.456-.62a.878.878,0,0,1,.447,0Z" transform="translate(-1264.208 -197.083)"/></g><path class="d" d="M0,0H.183V.271H0Z" transform="translate(0.947 1.953) rotate(165.777)"/><path class="d" d="M0,0H.183V.271H0Z" transform="translate(0.519 0.263) rotate(165.777)"/></g><path class="d" d="M1246.35,247.547a.209.209,0,1,1,.417.035.507.507,0,0,1-.223.027A.416.416,0,0,1,1246.35,247.547Z" transform="translate(-1244.849 -241.297)"/><path class="d" d="M1230.8,208.975a.251.251,0,1,1,.026.5.6.6,0,0,1-.07-.26A.486.486,0,0,1,1230.8,208.975Z" transform="translate(-1230.422 -205.793)"/><path class="d" d="M1312.681,212.988a.21.21,0,1,1,.26-.329.368.368,0,0,1-.057.24A.288.288,0,0,1,1312.681,212.988Z" transform="translate(-1306.134 -209.16)"/><path class="d" d="M1300.132,171.965a.21.21,0,0,1-.381-.175.368.368,0,0,1,.247,0A.291.291,0,0,1,1300.132,171.965Z" transform="translate(-1294.229 -171.375)"/><ellipse class="d" cx="0.605" cy="0.605" rx="0.605" ry="0.605" transform="translate(4.561 1.827)"/><ellipse class="d" cx="0.605" cy="0.605" rx="0.605" ry="0.605" transform="translate(1.184 3.564)"/></g></g><g transform="translate(69.503 6.789)"><path class="m" d="M1160.169,272.906c.373-1.08-.632-2.406-2.245-2.963s-3.221-.133-3.594.947S1159.8,273.986,1160.169,272.906Z" transform="translate(-1145.068 -267.105)"/><path class="n" d="M1151.559,591.268h2.151s.963-13.354.972-13.394a52.489,52.489,0,0,1,2.44-6.8l2.7,9.922,9.3-3.4a16.521,16.521,0,0,0-.694-2.082c-5.76,1.11-6.454.833-6.454.833s.15-8.552-.78-10.941c-.07-.18-9.679,1.609-9.679,1.609l-.854,11.206Z" transform="translate(-1141.685 -540.407)"/><g transform="translate(18.269 24.596)"><path class="o" d="M1278.5,563.475c-.009-.05-.679-1.726-.679-1.726s-2.315,1.547-3.113,1.185c-.03-.014.556,2.27.556,2.27S1278.671,564.376,1278.5,563.475Z" transform="translate(-1274.71 -561.749)"/><path class="d" d="M1277.016,566.223l-.018-.072c-.467-1.9-.459-1.911-.412-1.951l.035-.03.043.018c.555.236,2.161-.78,2.732-1.192l.076-.055.036.087a12.31,12.31,0,0,1,.638,1.609h0c-.034.377-.565.756-1.579,1.127a14.065,14.065,0,0,1-1.482.442Zm-.288-1.862c.061.291.258,1.112.4,1.682.841-.2,2.795-.793,2.872-1.409-.031-.108-.361-.913-.59-1.461C1279.037,563.432,1277.468,564.486,1276.728,564.361Zm3.271.263Z" transform="translate(-1276.426 -562.852)"/><g transform="translate(1.673 1.31)"><g transform="translate(0 0.066)"><path class="d" d="M1297.15,580.928a.409.409,0,0,0,.215.018c.116-.022.173-.1.156-.186s-.072-.121-.2-.144c-.154-.024-.258-.081-.281-.206a.259.259,0,0,1,.24-.294.409.409,0,0,1,.2.006l-.014.1a.355.355,0,0,0-.176-.01c-.12.023-.153.1-.141.164.016.083.077.113.208.137.16.029.25.087.275.216s-.052.273-.261.313a.463.463,0,0,1-.236-.013Z" transform="translate(-1297.036 -580.107)"/></g><rect class="d" width="0.097" height="0.143" transform="matrix(0.982, -0.188, 0.188, 0.982, 0.146, 0.018)"/><rect class="d" width="0.097" height="0.143" transform="matrix(0.982, -0.188, 0.188, 0.982, 0.319, 0.925)"/></g><path class="d" d="M1313.257,565.12a.111.111,0,1,1-.219-.032.268.268,0,0,1,.119-.007A.217.217,0,0,1,1313.257,565.12Z" transform="translate(-1310.164 -564.828)"/><path class="d" d="M1320.939,584.468a.133.133,0,1,1,0-.265.319.319,0,0,1,.029.139A.255.255,0,0,1,1320.939,584.468Z" transform="translate(-1317.349 -582.52)"/><path class="d" d="M1277.565,580.582a.111.111,0,1,1-.147.166.193.193,0,0,1,.038-.125A.152.152,0,0,1,1277.565,580.582Z" transform="translate(-1277.214 -579.17)"/><path class="d" d="M1282.575,602.963a.111.111,0,0,1,.2.1.194.194,0,0,1-.13-.007A.152.152,0,0,1,1282.575,602.963Z" transform="translate(-1281.985 -599.82)"/><ellipse class="d" cx="0.32" cy="0.32" rx="0.32" ry="0.32" transform="translate(0.717 1.873)"/><ellipse class="d" cx="0.32" cy="0.32" rx="0.32" ry="0.32" transform="translate(2.556 1.062)"/></g><g transform="translate(18.682 24.701)"><path class="e" d="M1283.947,564.938c0-.05-.521-1.78-.521-1.78s-2.445,1.332-3.207.9c-.029-.016.349,2.31.349,2.31S1284.033,565.851,1283.947,564.938Z" transform="translate(-1280.217 -563.158)"/><path class="d" d="M1282.066,567.312l-.011-.073c-.293-1.938-.285-1.944-.234-1.98l.038-.027.041.022c.532.286,2.222-.582,2.829-.94l.081-.048.028.09a12.191,12.191,0,0,1,.49,1.66h0c-.068.372-.631.7-1.674.98a14.054,14.054,0,0,1-1.516.307Zm-.119-1.88c.035.3.157,1.13.245,1.711.855-.124,2.854-.538,2.987-1.144-.022-.111-.278-.942-.456-1.509C1284.33,564.715,1282.674,565.624,1281.947,565.432Z" transform="translate(-1281.675 -564.183)"/><g transform="translate(1.625 1.197)"><g transform="translate(0 0.072)"><path class="d" d="M1301.969,580.893a.413.413,0,0,0,.213.038c.118-.011.181-.081.172-.171s-.061-.127-.186-.161c-.151-.037-.249-.1-.261-.23a.259.259,0,0,1,.265-.272.412.412,0,0,1,.2.024l-.023.1a.359.359,0,0,0-.174-.026c-.122.012-.162.09-.155.151.008.084.067.119.195.155.157.043.241.109.254.24s-.077.268-.288.289a.463.463,0,0,1-.234-.035Z" transform="translate(-1301.905 -580.094)"/></g><path class="d" d="M0,0H.1V.143H0Z" transform="translate(0.174 0.01) rotate(-5.643)"/><path class="d" d="M0,0H.1V.143H0Z" transform="translate(0.265 0.928) rotate(-5.643)"/></g><path class="d" d="M1319.7,566.313a.111.111,0,1,1-.216-.052.268.268,0,0,1,.119,0A.219.219,0,0,1,1319.7,566.313Z" transform="translate(-1316.537 -566.024)"/><path class="d" d="M1325.488,586.35a.133.133,0,1,1,.026-.264.31.31,0,0,1,.016.141A.253.253,0,0,1,1325.488,586.35Z" transform="translate(-1321.98 -584.367)"/><path class="d" d="M1282.615,578.583a.111.111,0,0,1-.162.152.2.2,0,0,1,.049-.121A.152.152,0,0,1,1282.615,578.583Z" transform="translate(-1282.284 -577.426)"/><path class="d" d="M1285.7,601.275a.111.111,0,0,1,.186.121.2.2,0,0,1-.129-.019A.152.152,0,0,1,1285.7,601.275Z" transform="translate(-1285.29 -598.372)"/><ellipse class="d" cx="0.32" cy="0.32" rx="0.32" ry="0.32" transform="translate(0.622 1.677)"/><ellipse class="d" cx="0.32" cy="0.32" rx="0.32" ry="0.32" transform="translate(2.527 1.035)"/></g><g transform="translate(17.381 25.055)"><path class="p" d="M1265.458,570.2c.087.331.164,1.9.164,1.9a16.651,16.651,0,0,1-1.7-1.521,8.327,8.327,0,0,1-1.063-2.314l2.07-.44S1265.264,569.464,1265.458,570.2Z" transform="translate(-1262.863 -567.828)"/></g><ellipse class="q" cx="2.221" cy="4.858" rx="2.221" ry="4.858" transform="translate(5.94 5.954) rotate(-68.141)"/><path class="r" d="M1133.9,297.393c.278.278-.174,3.111-.837,3.557-1.266.851-1.29-.778-2.286-1.267-2.327-1.143-3.548.188-4.372-1.6-.733-1.588.3-3.657,2.012-1.943C1128.488,296.213,1131.751,295.242,1133.9,297.393Z" transform="translate(-1119.031 -290.972)"/><path class="s" d="M1175.267,376.224l-2.8.466-.5-3.693,2.816-.468Z" transform="translate(-1161.398 -362.18)"/><path class="t" d="M.08.876a1.861,1.861,0,0,0,.4,1.782c1.153.8,2.9-.923,2.914-1.62C3.386.689,2.555.639,2.623.3,2.751-.457,1.161.441.659.62S.32.178.08.876Z" transform="translate(10.063 11.432) rotate(-47)"/><path class="s" d="M1050.826,335.288l-2.592-1.072-2.846-4.4-1.082-.086a48.023,48.023,0,0,0,2.078,5.919c.4.717,2.154,1.737,3.631,2.328C1050.272,337.048,1050.531,336.186,1050.826,335.288Z" transform="translate(-1043.306 -322.639)"/><path class="s" d="M1266.781,267.049l-.852-.3-3.054,6.9c-.2.08-.985,1.008-1.391,1.25a11,11,0,0,0,1.481,2.887,9.941,9.941,0,0,0,2.024-3.191C1265.43,273.1,1266.781,267.049,1266.781,267.049Z" transform="translate(-1244.207 -264.376)"/><path class="u" d="M1061.939,294.7s-.5,1.57-1.359,1.7a1.219,1.219,0,0,1-1.408-.9l-3.854-.562-2.057-.8-2.568-3.817-.971.763a47.483,47.483,0,0,0,1.666,4.789c.66,1.377,5.532,3.767,5.532,3.767L1058,309.6l10.216-1.771-2.51-10.1a10.245,10.245,0,0,1,1.365-1.664,9.243,9.243,0,0,0,2.08-3.037,32.32,32.32,0,0,0,1.388-5.969s-.833-.416-1.249-.555c-.083-.028-2.36,5.275-2.36,5.275s-1.329,1.43-1.339,1.4A18.392,18.392,0,0,1,1061.939,294.7Z" transform="translate(-1048.315 -282.656)"/><path class="v" d="M1178.448,396.07s-.495,1.314-1.307,1.542a1.193,1.193,0,0,1-1.452-.75l1.619,13.617,3.757-.651S1178.529,396.057,1178.448,396.07Z" transform="translate(-1164.842 -383.933)"/><path class="s" d="M1317.221,258.929c-.207-.574-.218-1.239-1.159-.835-.588.252-.576.974-.576,1.668,0,.61.3.633.9.416S1317.428,259.5,1317.221,258.929Z" transform="translate(-1294.161 -256.256)"/><path class="s" d="M1150.25,307.81c.056.629-.519.932-.538,1.5-.053,1.53-1.1,3.235-2.3,3.436-1.024.17-2.84-1.523-3.2-3.714a10.256,10.256,0,0,1-.155-1.584c0-.929,2.725.8,4.312-1.569.371-.553.451,1.911,1.034,1.814C1149.42,307.692,1150.144,306.617,1150.25,307.81Z" transform="translate(-1135.573 -300.502)"/><path class="w" d="M1115.389,907.771h-2.176a12.04,12.04,0,0,1-2,1.366c-.774.4-1.668.072-2,.877a1.323,1.323,0,0,0,0,.394h6.386v-.394Z" transform="translate(-1103.324 -857.125)"/><path class="v" d="M1115.664,907.771h-2.346a9.907,9.907,0,0,1-1.893,1.318c-.774.4-2.031.1-2.014.924,0,.1,6.385,0,6.385,0Z" transform="translate(-1103.531 -857.125)"/><path class="w" d="M1385.83,689.755l.545,2.062a8.3,8.3,0,0,1,1.856,1.444c.591.641.507,1.724,1.372,1.835a1.328,1.328,0,0,0,.379-.1l-1.69-6.158-.38.1Z" transform="translate(-1359.233 -654.66)"/><rect class="s" width="0.481" height="2.151" rx="0.24" transform="translate(21.822)"/><rect class="s" width="0.481" height="2.151" rx="0.24" transform="matrix(0.866, 0.5, -0.5, 0.866, 23.086, 0.232)"/><path class="v" d="M1385.242,690.946l.621,2.262a9.908,9.908,0,0,1,1.772,1.476c.591.641.638,1.931,1.424,1.7.094-.028-1.69-6.158-1.69-6.158Z" transform="translate(-1358.689 -655.946)"/><path class="s" d="M1036.206,310.786c.207-.574.218-1.239,1.159-.835.588.252.576.974.576,1.668,0,.61-.3.633-.9.416S1036,311.361,1036.206,310.786Z" transform="translate(-1035.764 -304.226)"/><rect class="s" width="0.481" height="2.151" rx="0.24" transform="translate(1.68 6.038) rotate(-180)"/><rect class="s" width="0.481" height="2.151" rx="0.24" transform="translate(1.492 5.982) rotate(150)"/><path class="u" d="M1172.45,407.414a9.285,9.285,0,0,1,.057,1.364c-.3-.042-.551-.791-.53-1.25.022-.486.215-1.032.283-.964A4.18,4.18,0,0,1,1172.45,407.414Z" transform="translate(-1161.406 -393.649)"/><path class="u" d="M1212.788,396.634a12.37,12.37,0,0,0,.354,1.324c.273-.138.3-.944.13-1.371-.18-.452-.541-.905-.583-.819A4.15,4.15,0,0,0,1212.788,396.634Z" transform="translate(-1199.068 -383.662)"/></g><g transform="translate(43.021 2.798)"><path class="x" d="M0,0H3.122V2.554H0Z" transform="translate(23.723 33.975) rotate(-11.338)"/><path class="u" d="M830.564,560.175l-.972-2.637-9.161,1.388,1.527-7.357-7.01.208,1.735,11.521Z" transform="translate(-804.803 -523.859)"/><path class="r" d="M1041.757,611.53l2.415,6.185a1.223,1.223,0,0,1-.731.135l-2.4-5.868Z" transform="translate(-1013.956 -579.326)"/><path class="y" d="M1028.139,620.221c-.769-.142-1.119-1.418-2.217-1.923-.866-.4-.745-.631-.745-.631a2.53,2.53,0,0,0,.1-1.894c-.2-.369-.467-.173-.679-.344a.273.273,0,0,1-.081-.3l1.633-1.037,2.479,6.093A.882.882,0,0,1,1028.139,620.221Z" transform="translate(-998.654 -581.698)"/><path class="x" d="M0,0H3.122V2.554H0Z" transform="translate(26.291 32.309) rotate(-11.338)"/><path class="z" d="M864.826,537.629l-.972-2.637-9.161,1.388s2.082-6.663,1.6-7.218c-.357-.408-7.079.069-7.079.069l1.735,11.521Z" transform="translate(-836.498 -502.979)"/><path class="r" d="M1076.019,589.306l2.415,6.185a1.224,1.224,0,0,1-.73.135l-2.4-5.868Z" transform="translate(-1045.65 -558.768)"/><path class="y" d="M1062.4,598c-.769-.142-1.119-1.418-2.217-1.923-.866-.4-.745-.631-.745-.631a2.529,2.529,0,0,0,.1-1.894c-.2-.369-.467-.173-.679-.344a.273.273,0,0,1-.081-.3l1.633-1.037,2.479,6.093A.881.881,0,0,1,1062.4,598Z" transform="translate(-1030.349 -561.14)"/><path class="u" d="M810.922,239.391a1.664,1.664,0,0,1,2.846-.972c.114.114.687-.22,1.527-.416a2.605,2.605,0,0,1,2.151,1.11c.972,1.457,1.458.278,1.8,2.221.213,1.192-.764,1.457-.694,2.151.181,1.813-.765,3.082-1.874,3.123-1.755.066-1.433-2.678-2.915-3.331C811.755,242.39,810.715,240.948,810.922,239.391Z" transform="translate(-801.055 -233.681)"/><path class="aa" d="M860.574,350.038h-2.842l.117-3.724H860.7Z" transform="translate(-844.38 -333.987)"/><path class="ab" d="M1027.995,558.011a4.839,4.839,0,0,0,.534,1.711c.527.42,2.331-.883,2.217-1.711-.011-.348-.528.418-.461.076.128-.755-1.142-.684-1.645-.5S1028.235,557.313,1027.995,558.011Z" transform="translate(-1014.433 -545.243)"/><path class="x" d="M746.917,283.548l-2.381-1.482-2.086-4.807L741.4,277a48.023,48.023,0,0,0,1.079,6.18c.278.773,1.84,2.067,3.2,2.892C746.082,285.194,746.479,284.385,746.917,283.548Z" transform="translate(-736.765 -269.865)"/><path class="y" d="M798.225,357.895s-.755,1.466-1.62,1.458a1.219,1.219,0,0,1-1.243-1.114l-4.086-1.307c-.091.217-1.03,2.721-1.03,2.721,1.055,1.156,2.217,2.3,2.217,2.3s-1.533,9.009-.564,10c2.836,2.9,10.369-.072,10.369-.072l-.821-10.372a10.236,10.236,0,0,1,1.619-1.417,11,11,0,0,1-.986-3.094A18.4,18.4,0,0,1,798.225,357.895Z" transform="translate(-781.953 -343.809)"/><path class="x" d="M950.871,232.819l-1.1.32-.071,8.043c-.213.046-1.137.833-1.577,1.005a11,11,0,0,0,.988,3.091,9.945,9.945,0,0,0,2.52-2.816C952.307,241.055,950.871,232.819,950.871,232.819Z" transform="translate(-927.994 -228.999)"/><path class="x" d="M844.836,286.514c-.048.63-.664.835-.777,1.395-.3,1.5-1.612,3.011-2.837,3.011-1.038,0-2.551-1.968-2.551-4.189a13.491,13.491,0,0,1,.107-1.588c.058-.494,1.446,1.45,4.247-.485.425-.293.484,1.829.738,2.351.074.152.129-.561.248-.747C844.111,286.106,844.927,285.32,844.836,286.514Z" transform="translate(-826.748 -276.926)"/><g transform="translate(0 2.236)"><path class="o" d="M686.569,214.167c-.053-.079-2.472-2.484-2.472-2.484s-2.855,4.419-4.51,4.389c-.062,0,2.666,3.519,2.666,3.519S687.536,215.6,686.569,214.167Z" transform="translate(-679.586 -211.683)"/><path class="d" d="M687.834,223.17l-.044-.059c-.005-.007-.552-.729-1.09-1.447-1.114-1.489-1.109-1.5-1.081-1.557l.021-.042h.047c1.411-.007,3.877-4.106,3.9-4.147l.048-.081.068.066c1.5,1.448,2.273,2.217,2.3,2.285.5,1.534-3.919,4.8-4.107,4.94Zm-2.021-2.965c.257.375,1.307,1.774,2.051,2.757.531-.4,4.42-3.375,4-4.721-.095-.128-1.332-1.336-2.192-2.166C689.312,216.657,687.214,220,685.813,220.2Z" transform="translate(-685.16 -215.525)"/><g transform="translate(3.203 3.158)"><path class="d" d="M722.982,255.463a.777.777,0,0,0,.387-.129c.186-.126.227-.3.131-.439s-.215-.155-.455-.1c-.285.075-.507.052-.642-.146a.489.489,0,0,1,.2-.69.773.773,0,0,1,.357-.142l.051.182a.677.677,0,0,0-.312.115c-.192.13-.187.295-.122.39.089.131.219.138.463.081.3-.07.5-.037.639.169a.512.512,0,0,1-.217.739.878.878,0,0,1-.419.154Z" transform="translate(-722.328 -253.816)"/><path class="d" d="M0,0H.183V.271H0Z" transform="translate(0.059 0.117) rotate(-34.192)"/><path class="d" d="M0,0H.183V.271H0Z" transform="translate(1.039 1.559) rotate(-34.192)"/></g><path class="d" d="M737.216,218.535a.21.21,0,1,1-.4.109.509.509,0,0,1,.2-.1A.418.418,0,0,1,737.216,218.535Z" transform="translate(-732.523 -218.014)"/><path class="d" d="M765.9,246.3a.251.251,0,1,1-.2-.461.59.59,0,0,1,.155.22A.486.486,0,0,1,765.9,246.3Z" transform="translate(-759.106 -243.28)"/><path class="d" d="M687.866,272a.21.21,0,1,1-.132.4.366.366,0,0,1-.029-.245A.288.288,0,0,1,687.866,272Z" transform="translate(-687.087 -267.479)"/><path class="d" d="M712.811,307.3a.21.21,0,1,1,.418.034.367.367,0,0,1-.231.085A.288.288,0,0,1,712.811,307.3Z" transform="translate(-710.321 -299.953)"/><ellipse class="d" cx="0.605" cy="0.605" rx="0.605" ry="0.605" transform="translate(1.949 4.756)"/><ellipse class="d" cx="0.605" cy="0.605" rx="0.605" ry="0.605" transform="translate(4.529 1.97)"/></g><g transform="translate(18.367)"><path class="o" d="M931.576,185.742c.023-.093.183-3.5.183-3.5s-5.192.849-6.281-.4c-.041-.047-.82,4.338-.82,4.338S931.159,187.422,931.576,185.742Z" transform="translate(-924.658 -181.843)"/><path class="d" d="M931.363,192.11a23.131,23.131,0,0,1-3.973-.445l-.072-.015.014-.073c0-.009.17-.9.341-1.779.356-1.825.367-1.829.429-1.846l.044-.013.032.035c.389.426,1.493.581,3.191.449a24.143,24.143,0,0,0,2.5-.34l.093-.019,0,.094c-.066,2.084-.117,3.173-.153,3.235C933.5,191.941,932.491,192.11,931.363,192.11Zm-3.87-.577a26.385,26.385,0,0,0,2.8.382c1.905.145,3.076-.059,3.386-.587.031-.156.1-1.884.135-3.079-.671.127-4.558.816-5.649-.086C928.054,188.6,927.722,190.322,927.493,191.533Z" transform="translate(-927.118 -187.483)"/><g transform="translate(3.002 1.67)"><g transform="translate(0 0.153)"><path class="d" d="M964.812,207.486a.776.776,0,0,0,.356.2c.218.053.373-.031.414-.2s-.029-.264-.231-.4c-.246-.161-.379-.341-.322-.574a.489.489,0,0,1,.643-.319.771.771,0,0,1,.345.169l-.1.16a.677.677,0,0,0-.294-.155c-.225-.055-.344.059-.371.172-.038.154.045.255.251.4.253.176.362.345.3.587s-.3.429-.693.335a.877.877,0,0,1-.4-.208Z" transform="translate(-964.715 -206.171)"/></g><rect class="d" width="0.183" height="0.271" transform="translate(0.832 0) rotate(13.652)"/><rect class="d" width="0.183" height="0.271" transform="translate(0.42 1.695) rotate(13.652)"/></g><path class="d" d="M1011.1,190.825a.21.21,0,0,1-.353-.227.508.508,0,0,1,.21.08A.415.415,0,0,1,1011.1,190.825Z" transform="translate(-1004.266 -189.941)"/><path class="d" d="M1008.111,230.913a.251.251,0,1,1,.211-.455.59.59,0,0,1-.059.263A.487.487,0,0,1,1008.111,230.913Z" transform="translate(-1001.716 -226.792)"/><path class="d" d="M936.521,190.327a.21.21,0,1,1-.383.169.368.368,0,0,1,.163-.186A.289.289,0,0,1,936.521,190.327Z" transform="translate(-935.277 -189.661)"/><path class="d" d="M928.558,232.4a.21.21,0,0,1,.255.333.367.367,0,0,1-.219-.114A.289.289,0,0,1,928.558,232.4Z" transform="translate(-928.259 -228.569)"/><ellipse class="d" cx="0.605" cy="0.605" rx="0.605" ry="0.605" transform="translate(1.207 1.94)"/><ellipse class="d" cx="0.605" cy="0.605" rx="0.605" ry="0.605" transform="translate(5.004 1.984)"/></g><g transform="translate(18.831 0.014)"><path class="e" d="M937.774,186.467c.031-.09.5-3.469.5-3.469s-5.248.379-6.219-.962c-.037-.051-1.207,4.247-1.207,4.247S937.208,188.1,937.774,186.467Z" transform="translate(-930.845 -182.035)"/><path class="d" d="M938.473,192.841a20.307,20.307,0,0,1-4.7-.839l-.071-.021.02-.071c0-.009.25-.88.5-1.741.519-1.786.53-1.788.594-1.8l.046-.009.029.037c.35.459,1.435.713,3.139.734a24.2,24.2,0,0,0,2.521-.113l.094-.01-.011.094c-.253,2.07-.4,3.149-.444,3.208h0A2.09,2.09,0,0,1,938.473,192.841Zm-4.589-.962a26.417,26.417,0,0,0,2.75.632c1.885.315,3.069.219,3.426-.28.045-.152.265-1.868.411-3.054-.68.066-4.613.4-5.619-.595C934.707,189.013,934.221,190.694,933.884,191.879Zm6.18.345h0Z" transform="translate(-933.485 -187.886)"/><g transform="translate(3.083 1.935)"><g transform="translate(0 0.146)"><path class="d" d="M972.094,211.044a.778.778,0,0,0,.336.232c.212.072.375,0,.43-.16s-.005-.266-.194-.423c-.231-.183-.347-.374-.269-.6a.489.489,0,0,1,.669-.259.771.771,0,0,1,.328.2l-.115.15A.674.674,0,0,0,973,210c-.219-.075-.348.028-.385.138-.051.15.021.258.214.419.236.2.33.376.249.612a.512.512,0,0,1-.721.271.88.88,0,0,1-.375-.242Z" transform="translate(-971.982 -209.794)"/></g><path class="d" d="M0,0H.183V.271H0Z" transform="translate(0.976 0) rotate(18.818)"/><path class="d" d="M0,0H.183V.271H0Z" transform="translate(0.413 1.651) rotate(18.818)"/></g><path class="d" d="M1021.2,197.821a.21.21,0,1,1-.331-.257.506.506,0,0,1,.2.1A.417.417,0,0,1,1021.2,197.821Z" transform="translate(-1014.085 -196.399)"/><path class="d" d="M1014.467,237.7a.251.251,0,1,1,.251-.434.593.593,0,0,1-.083.256A.487.487,0,0,1,1014.467,237.7Z" transform="translate(-1008.079 -233.096)"/><path class="d" d="M946.885,190.829a.209.209,0,1,1-.4.134.367.367,0,0,1,.179-.17A.288.288,0,0,1,946.885,190.829Z" transform="translate(-945.316 -190.128)"/><path class="d" d="M935.253,231.892a.21.21,0,0,1,.224.354.367.367,0,0,1-.207-.133A.289.289,0,0,1,935.253,231.892Z" transform="translate(-934.909 -228.125)"/><ellipse class="d" cx="0.605" cy="0.605" rx="0.605" ry="0.605" transform="translate(1.361 2.02)"/><ellipse class="d" cx="0.605" cy="0.605" rx="0.605" ry="0.605" transform="translate(5.139 2.404)"/></g><path class="x" d="M962.268,230.278c-.11-.6-.274-.986-1.27-.741-.621.152-1.117.557-1.007,1.158a1.065,1.065,0,0,0,1.347.747A1,1,0,0,0,962.268,230.278Z" transform="translate(-938.961 -225.893)"/><g transform="translate(1.024 2.659)"><path class="e" d="M694.475,211.749c-.046-.084-2.238-2.7-2.238-2.7s-3.241,4.144-4.887,3.965c-.062-.007,2.338,3.745,2.338,3.745S695.308,213.267,694.475,211.749Z" transform="translate(-687.348 -209.052)"/><path class="d" d="M695.026,220.289l-.039-.063c0-.008-.484-.776-.955-1.539-.976-1.583-.969-1.593-.936-1.648l.024-.04.047,0c1.4.119,4.231-3.74,4.259-3.779l.056-.076.062.071c1.364,1.577,2.064,2.412,2.08,2.482h0c.364,1.573-4.335,4.429-4.535,4.55Zm-1.746-3.135c.222.4,1.142,1.885,1.794,2.93.564-.349,4.706-2.964,4.406-4.342-.083-.136-1.206-1.45-1.988-2.355C697.084,213.936,694.693,217.077,693.28,217.153Z" transform="translate(-692.655 -212.84)"/><g transform="translate(3.247 3.06)"><g transform="translate(0 0.024)"><path class="d" d="M731.223,251.84a.778.778,0,0,0,.4-.094c.2-.109.253-.276.17-.426s-.2-.174-.444-.14c-.29.049-.51.006-.626-.2a.489.489,0,0,1,.257-.67.772.772,0,0,1,.369-.11l.034.186a.677.677,0,0,0-.321.086c-.2.112-.213.276-.156.378.077.139.205.157.454.123.305-.042.5.008.621.226a.513.513,0,0,1-.283.716.878.878,0,0,1-.432.116Z" transform="translate(-730.666 -250.198)"/></g><path class="d" d="M0,0H.183V.271H0Z" transform="translate(0.103 0.089) rotate(-29.025)"/><path class="d" d="M0,0H.183V.271H0Z" transform="translate(0.949 1.614) rotate(-29.025)"/></g><path class="d" d="M749.271,215.985a.21.21,0,1,1-.413.072.506.506,0,0,1,.209-.083A.416.416,0,0,1,749.271,215.985Z" transform="translate(-744.248 -215.449)"/><path class="d" d="M775.2,246.059a.251.251,0,1,1-.153-.477.59.59,0,0,1,.135.233A.485.485,0,0,1,775.2,246.059Z" transform="translate(-768.304 -242.844)"/><path class="d" d="M695.168,264.638a.21.21,0,1,1-.167.384.368.368,0,0,1-.006-.247A.289.289,0,0,1,695.168,264.638Z" transform="translate(-694.404 -260.471)"/><path class="d" d="M716.889,302.07a.21.21,0,0,1,.413.072.367.367,0,0,1-.238.064A.289.289,0,0,1,716.889,302.07Z" transform="translate(-714.675 -294.938)"/><ellipse class="d" cx="0.605" cy="0.605" rx="0.605" ry="0.605" transform="translate(1.851 4.558)"/><ellipse class="d" cx="0.605" cy="0.605" rx="0.605" ry="0.605" transform="translate(4.672 2.016)"/></g><path class="x" d="M736.684,268.693c-.826-.113-1.359.283-1.443.9s.26,1,1.086,1.115,1.447-.134,1.531-.75S737.51,268.806,736.684,268.693Z" transform="translate(-731.059 -262.166)"/></g><g transform="translate(4.202 12.479)"><path class="x" d="M379.189,614.708l-6.462-.084a11.376,11.376,0,0,0,.685,2.583c.688,1.665,4.784,9.739,4.784,9.739-.209.774.706,8.472.706,8.472l1.6-.063s.918-8.279.823-9.365C381.068,623.077,379.189,614.708,379.189,614.708Z" transform="translate(-357.134 -591.639)"/><path class="ac" d="M454.147,906.866c-.057-.447-1.106-.177-1.719-.538a21.778,21.778,0,0,1-2.694-1.975h-.25v2.914h.839v-1.457s1.314,1.409,1.944,1.558C452.838,907.5,454.218,907.42,454.147,906.866Z" transform="translate(-428.139 -859.652)"/><path class="ad" d="M449.808,886.612h1.819l.609,2.732a2.635,2.635,0,0,0,1.174.666c.568.039.834.412.737.522-.3.332-1.394.316-1.813.163a8.383,8.383,0,0,1-2.751-2.455C449.267,887.805,449.808,886.612,449.808,886.612Z" transform="translate(-428.138 -843.242)"/><path class="x" d="M235.931,614.624h-6.162a2.846,2.846,0,0,0-1.827,2.692c-.036,1.8-.143,7.159-.143,7.159-.055.024-8.008-2.708-8.008-2.708l-.8,1.362,10.241,5.4Z" transform="translate(-214.921 -591.639)"/><path class="ac" d="M165.066,691.254c.424,0,.308-1.063.723-1.619a21.5,21.5,0,0,1,2.186-2.4l.032-.245-2.712-.357-.108.822,1.356.178s-1.481,1.115-1.7,1.715C164.641,689.894,164.54,691.256,165.066,691.254Z" transform="translate(-164.679 -658.253)"/><path class="ad" d="M171.962,692.817l-.878,1.472-2.331-.337a2.634,2.634,0,0,0-.813,1.078c-.113.558-.518.773-.613.662-.29-.338-.131-1.424.074-1.819a8.384,8.384,0,0,1,2.793-2.408C170.665,691.208,171.962,692.817,171.962,692.817Z" transform="translate(-166.982 -662.695)"/><path class="r" d="M199.653,318.248c2.2.154,1.6-2.389,1.991-3.226,1.41-3,.336-3.559.062-4.066a1.413,1.413,0,0,0-1.131-.676c-.576-1.234-3.24-.779-3.662.943-.175.713-2.333-1.88-4.639-1.128-1.647.537-4.457,4.476-3.9-1.88a3.459,3.459,0,0,0-4.5,1.706c-2.934,5.013,1.853,7.911,6.171,8.249,1.5.117,2.03,2.6,5.267,2.685C197.736,320.919,197.8,318.118,199.653,318.248Z" transform="translate(-181.606 -307.936)"/><rect class="ae" width="3.64" height="1.265" transform="translate(19.395 11.344) rotate(-180)"/><path class="x" d="M379.453,412.787l3.882-.05-2.016-5.767-1.739-.079Z" transform="translate(-363.356 -399.475)"/><path class="ab" d="M1028.324,557.8a3.021,3.021,0,0,0,.492,1.925c1.39.7,2.332-.883,2.217-1.711-.011-.348-.528.418-.461.076.128-.755-1.142-.684-1.645-.5S1028.564,557.1,1028.324,557.8Z" transform="translate(-1012.082 -549.951)"/><path class="x" d="M450.528,459.152l.9.7s-5.385,5.6-5.633,5.592c-1.313-.016-3.67-2.593-4.679-3.7-.615-.676.262-2.519.262-2.519l4.287,3.572Z" transform="translate(-420.195 -447.819)"/><path class="x" d="M226.4,428.409l4.312,4.948,3.333-1.721-.022,2.033s-2.122,2.2-3.911,2.486c-.683.108-4.459-6.914-4.459-6.914Z" transform="translate(-221.087 -419.38)"/><path class="q" d="M311.585,455.383s-2.692,4.969-2.736,5.1c-.24.72.23,1.159,1.111,1.4.23.064,1.5-2.646,1.776-2.607s-.426,2.829-.106,2.847a53.377,53.377,0,0,0,9.864-.945l-1.408-6.208s-1.918-7.151-1.113-8.253c.056-.077.689-2.979.194-3.177-.725-.291-1.349-.476-1.349-.476l-.436-.647a4.682,4.682,0,0,1-1.011.673c-.052.019-.149-.01-.194.034a4.355,4.355,0,0,0-.579,1.895s-.528-1.894-.786-1.959a3.524,3.524,0,0,1-1.069-.644l-.378.745a11.358,11.358,0,0,0-2.246.892c-.782.388-.419,3.171-.419,3.171Z" transform="translate(-297.986 -432.34)"/><path class="x" d="M367.322,359.15c-.016.753.636.575.992,1.289.554,1.11.956,1.729,1.8,1.532,1.16-.273,1.738-1.8,1.72-4.059-.009-1.058-.005-1.517-.612-1.879-.253-.151.082.578-1.4,1.136-.749.282-1.52.054-1.578.822C368.173,358.853,367.336,358.5,367.322,359.15Z" transform="translate(-352.135 -352.409)"/><path class="x" d="M217.808,399.271c.08-.395.318-.194.472-.526.113-.244-.593-1-.459-1.156.189-.228.863.964,1.008,1.107a1.9,1.9,0,0,1,.309,1.231l-.77.791C218.148,400.467,217.585,400.366,217.808,399.271Z" transform="translate(-213.779 -390.843)"/><path class="x" d="M570.812,429.906c-.08-.395-.318-.194-.472-.526-.113-.244.593-1,.459-1.156-.189-.228-.862.964-1.008,1.107a1.9,1.9,0,0,0-.309,1.231l.77.791C570.472,431.1,571.036,431,570.812,429.906Z" transform="translate(-539.144 -419.182)"/><path class="r" d="M373.354,371.521a.444.444,0,0,1-.339-.155l.055-.051a.368.368,0,0,0,.314.129c.58-.04,1.369-1.178,1.377-1.19l.062.042c-.033.048-.818,1.18-1.434,1.222Z" transform="translate(-357.401 -365.584)"/><path class="r" d="M369.871,369.4a2.156,2.156,0,0,1-.466-.052l.016-.073c1.713.38,2.62-1.508,2.629-1.527l.068.032A2.844,2.844,0,0,1,369.871,369.4Z" transform="translate(-354.061 -363.264)"/><ellipse class="v" cx="0.241" cy="0.241" rx="0.241" ry="0.241" transform="translate(16.144 9.819)"/><ellipse class="v" cx="0.241" cy="0.241" rx="0.241" ry="0.241" transform="translate(16.597 9.957)"/><ellipse class="v" cx="0.241" cy="0.241" rx="0.241" ry="0.241" transform="translate(17.056 10.065)"/><ellipse class="v" cx="0.241" cy="0.241" rx="0.241" ry="0.241" transform="translate(17.526 10.032)"/><ellipse class="v" cx="0.241" cy="0.241" rx="0.241" ry="0.241" transform="translate(17.985 9.924)"/><ellipse class="v" cx="0.241" cy="0.241" rx="0.241" ry="0.241" transform="translate(18.386 9.684)"/><ellipse class="v" cx="0.136" cy="0.136" rx="0.136" ry="0.136" transform="translate(30.121 11.336)"/><ellipse class="v" cx="0.136" cy="0.136" rx="0.136" ry="0.136" transform="translate(30.287 11.511)"/><ellipse class="v" cx="0.136" cy="0.136" rx="0.136" ry="0.136" transform="translate(30.425 11.715)"/><ellipse class="v" cx="0.136" cy="0.136" rx="0.136" ry="0.136" transform="translate(30.608 11.889)"/><ellipse class="v" cx="0.136" cy="0.136" rx="0.136" ry="0.136" transform="translate(30.804 12.034)"/></g></svg>