<svg xmlns="http://www.w3.org/2000/svg" width="104.107" height="65.5" viewBox="0 0 104.107 65.5"><defs><style>.a{fill:#f2f5f8;}.b,.m{fill:#6fafd8;}.c{fill:#e0f7fa;}.d{fill:#a25d91;}.e{fill:#7e406f;}.f{fill:#fff;}.g{fill:#b2dfdb;}.h{fill:#6da196;}.i{fill:#ffc200;}.j{fill:#f57c00;}.k{fill:#ffa000;}.l{fill:#ffe082;}.m,.n{opacity:0.2;}.n{fill:#b0c9f1;}.o{opacity:0.5;}.p{fill:#ffd529;}.q{fill:#f4ca92;}.r{fill:#56557e;}.s{fill:#37474f;}.t{fill:#ffdfae;}.u{fill:#9499ea;}.v{fill:#7379db;}</style></defs><g transform="translate(0 0)"><path class="a" d="M150.037,200.22c2.45-5.064,18.412-7.161,20.671-13.174,3.561-9.477-5.16-31.111,7.181-34.523,7.711-2.133,18.822,3.166,27,10.137,6.224,5.3,31.431-14.288,42.076,2.092,3.618,5.567-4.609,8.107,3.911,23.561,8.343,15.134-7.109,37.128-41.853,26.377C198.377,211.395,140.54,219.854,150.037,200.22Z" transform="translate(-148.988 -152.045)"/><g transform="translate(43.751 10.683)"><path class="b" d="M714.9,397.423V395H682.631v2.432A4.944,4.944,0,0,0,678,402.351v37.06a1.615,1.615,0,0,0,1.61,1.61h38.6a1.615,1.615,0,0,0,1.61-1.61v-37.06A4.943,4.943,0,0,0,714.9,397.423Z" transform="translate(-678 -388.375)"/><path class="c" d="M754.754,399.737V395H726.11v4.746a4.388,4.388,0,0,0-4.11,4.366V437a1.433,1.433,0,0,0,1.429,1.429h34.258A1.433,1.433,0,0,0,759.117,437V404.112A4.387,4.387,0,0,0,754.754,399.737Z" transform="translate(-718.866 -388.375)"/><path class="d" d="M2.972,0H31.651a2.972,2.972,0,0,1,2.972,2.972V6.651a.473.473,0,0,1-.474.473H.473A.473.473,0,0,1,0,6.651V2.972A2.972,2.972,0,0,1,2.972,0Z" transform="translate(3.527 0)"/><path class="e" d="M756.935,317h29.718c1.349,0-.254,3.7-14.788,3.7C757.189,320.7,755.586,317,756.935,317Z" transform="translate(-750.956 -315.931)"/><path class="f" d="M.392,0H13.358a.392.392,0,1,1,0,.784H.392A.392.392,0,1,1,.392,0Z" transform="translate(13.963 2.351)"/><g transform="translate(12.372 22.82)"><path class="g" d="M878.179,635.663c0-.371-2.71-13.347-2.71-13.347s-18.48,8.388-23.787,4.751c-.2-.137.9,16.965.9,16.965S878.243,642.39,878.179,635.663Z" transform="translate(-851.658 -622.316)"/><path class="h" d="M861.411,654.248l-.023-.35c0-.035-.234-3.547-.442-7.026-.123-2.044-.213-3.677-.27-4.853-.033-.7-.055-1.246-.065-1.62-.016-.635-.021-.827.19-.95l.19-.111.188.12c1.861,1.213,6.146.723,12.391-1.417a93.764,93.764,0,0,0,9.073-3.7l.4-.195.1.438c.007.03.672,3,1.318,5.967,1.325,6.091,1.282,6.248,1.245,6.386h0c-.706,2.6-4.978,4.617-12.7,5.995a102.882,102.882,0,0,1-11.252,1.3Zm-.09-13.909c.045,1.9.448,8.478.754,13.159a102.439,102.439,0,0,0,10.819-1.272c9.163-1.636,11.653-3.853,12.116-5.439-.049-.676-1.456-7.122-2.463-11.616-1.181.55-4.784,2.185-8.746,3.542C867.762,640.784,863.57,641.329,861.321,640.339Zm23.69,6.475Zm.01-.067h0Z" transform="translate(-859.968 -633.301)"/><g transform="translate(12.229 7.879)"><g transform="translate(0 0.547)"><path class="h" d="M1023.521,746.291a3.019,3.019,0,0,0,1.534.409c.871-.012,1.374-.48,1.365-1.146-.009-.617-.366-.964-1.262-1.295-1.083-.367-1.757-.915-1.77-1.845a1.9,1.9,0,0,1,2.109-1.822,3,3,0,0,1,1.464.3l-.225.7a2.628,2.628,0,0,0-1.258-.3c-.9.013-1.236.556-1.229,1.006.009.617.414.915,1.33,1.255,1.122.415,1.7.946,1.712,1.915.014,1.018-.727,1.91-2.284,1.932a3.409,3.409,0,0,1-1.69-.4Z" transform="translate(-1023.316 -740.592)"/></g><rect class="h" width="0.71" height="1.052" transform="matrix(1, -0.014, 0.014, 1, 1.544, 0.01)"/><rect class="h" width="0.71" height="1.052" transform="matrix(1, -0.014, 0.014, 1, 1.64, 6.786)"/></g><path class="h" d="M1157.831,644.673a.814.814,0,1,1-1.546-.51,1.97,1.97,0,0,1,.868.1A1.614,1.614,0,0,1,1157.831,644.673Z" transform="translate(-1134.545 -642.591)"/><path class="h" d="M1188.568,803.344a.974.974,0,1,1,.352-1.915,2.31,2.31,0,0,1,.032,1.046A1.893,1.893,0,0,1,1188.568,803.344Z" transform="translate(-1163.799 -788.652)"/><path class="h" d="M863.54,715.853a.814.814,0,1,1-1.278,1.01,1.427,1.427,0,0,1,.432-.856A1.12,1.12,0,0,1,863.54,715.853Z" transform="translate(-861.505 -709.165)"/><path class="h" d="M873.391,892.071a.814.814,0,0,1,1.283,1,1.426,1.426,0,0,1-.934-.218A1.123,1.123,0,0,1,873.391,892.071Z" transform="translate(-871.841 -872.563)"/><ellipse class="h" cx="2.351" cy="2.351" rx="2.351" ry="2.351" transform="translate(4.299 10.806)"/><ellipse class="h" cx="2.351" cy="2.351" rx="2.351" ry="2.351" transform="translate(18.12 7.102)"/></g><g transform="translate(3.632 20.446)"><path class="g" d="M744.656,590.014c-.359-.1-13.582-1.014-13.582-1.014s2.847,20.244-2.094,24.364c-.186.155,16.782,3.562,16.782,3.562S751.148,591.779,744.656,590.014Z" transform="translate(-728.979 -589)"/><path class="h" d="M767.594,628.376l-.343-.073c-.034-.007-3.477-.738-6.882-1.482-2-.437-3.6-.793-4.744-1.058-.683-.158-1.214-.285-1.577-.378-.616-.157-.8-.2-.863-.441l-.055-.213.167-.148c1.672-1.462,2.363-5.717,2-12.3a93.774,93.774,0,0,0-1.1-9.743l-.078-.442.448.024c.03,0,3.067.166,6.1.351,6.223.378,6.362.462,6.484.535,2.311,1.385,3.093,6.044,2.324,13.846a102.848,102.848,0,0,1-1.8,11.183Zm-13.411-3.689c1.837.472,8.281,1.87,12.87,2.846a102.388,102.388,0,0,0,1.712-10.758c.912-9.263-.545-12.261-1.946-13.137-.664-.136-7.25-.531-11.849-.783.209,1.286.8,5.2,1.036,9.379C756.359,618.609,755.746,622.791,754.183,624.687Z" transform="translate(-751.409 -601.162)"/><g transform="translate(6.751 11.006)"><g transform="translate(0.591)"><path class="h" d="M837.077,748.263a3.022,3.022,0,0,0,.81-1.365c.225-.842-.089-1.453-.732-1.624-.6-.159-1.028.091-1.589.863-.647.942-1.358,1.442-2.257,1.2a1.9,1.9,0,0,1-1.181-2.525,3,3,0,0,1,.688-1.326l.611.406a2.632,2.632,0,0,0-.626,1.13c-.232.871.2,1.341.635,1.457.6.159.993-.151,1.568-.94.7-.968,1.371-1.377,2.307-1.128.984.263,1.641,1.218,1.24,2.723a3.414,3.414,0,0,1-.841,1.519Z" transform="translate(-832.029 -743.488)"/></g><rect class="h" width="0.71" height="1.052" transform="translate(0 1.794) rotate(-75.062)"/><rect class="h" width="0.71" height="1.052" transform="translate(6.548 3.541) rotate(-75.062)"/></g><path class="h" d="M772.61,604.014a.814.814,0,1,1-.911,1.35,1.971,1.971,0,0,1,.33-.809A1.618,1.618,0,0,1,772.61,604.014Z" transform="translate(-768.653 -602.944)"/><path class="h" d="M936.362,620.734a.974.974,0,1,1-1.748-.858,2.3,2.3,0,0,1,1.015.253A1.885,1.885,0,0,1,936.362,620.734Z" transform="translate(-919.866 -617.669)"/><path class="h" d="M764,907.869a.814.814,0,1,1,.625,1.5,1.429,1.429,0,0,1-.707-.648A1.119,1.119,0,0,1,764,907.869Z" transform="translate(-761.381 -885.094)"/><path class="h" d="M935.089,947.176a.814.814,0,0,1,1.314-.962,1.427,1.427,0,0,1-.463.84A1.122,1.122,0,0,1,935.089,947.176Z" transform="translate(-920.259 -920.457)"/><ellipse class="h" cx="2.351" cy="2.351" rx="2.351" ry="2.351" transform="translate(7.624 18.38)"/><ellipse class="h" cx="2.351" cy="2.351" rx="2.351" ry="2.351" transform="translate(8.123 3.633)"/></g><g transform="translate(11.53 36.057)"><ellipse class="i" cx="6.982" cy="6.982" rx="6.982" ry="6.982" transform="translate(0 0)"/><ellipse class="j" cx="6.07" cy="6.07" rx="6.07" ry="6.07" transform="translate(0.913 1.018)"/><ellipse class="k" cx="5.871" cy="5.871" rx="5.871" ry="5.871" transform="translate(1.111 1.111)"/><g transform="translate(4.601 3.135)"><g transform="translate(0 0.382)"><path class="l" d="M905.725,863.675a3.016,3.016,0,0,0,1.587-.034c.834-.255,1.186-.844.992-1.48-.18-.59-.62-.824-1.573-.892-1.142-.051-1.942-.39-2.213-1.28a1.9,1.9,0,0,1,1.519-2.338,3,3,0,0,1,1.49-.117l-.022.734a2.629,2.629,0,0,0-1.291.066c-.861.263-1.032.879-.9,1.309.18.59.653.763,1.627.835,1.193.086,1.894.435,2.177,1.363.3.974-.167,2.037-1.656,2.492a3.412,3.412,0,0,1-1.734.089Z" transform="translate(-904.441 -857.487)"/></g><rect class="l" width="0.71" height="1.052" transform="matrix(0.956, -0.292, 0.292, 0.956, 0.834, 0.207)"/><rect class="l" width="0.71" height="1.052" transform="matrix(0.956, -0.292, 0.292, 0.956, 2.813, 6.689)"/></g></g><g transform="translate(4.275 36.048)"><ellipse class="i" cx="6.982" cy="6.982" rx="6.982" ry="6.982"/><ellipse class="j" cx="6.07" cy="6.07" rx="6.07" ry="6.07" transform="translate(0.913 1.018)"/><ellipse class="k" cx="5.871" cy="5.871" rx="5.871" ry="5.871" transform="translate(1.111 1.111)"/><g transform="translate(3.302 4.329)"><path class="l" d="M785.075,871.08a3.02,3.02,0,0,0,.419,1.531c.45.747,1.107.946,1.677.6.528-.318.649-.8.483-1.742-.229-1.12-.094-1.978.7-2.458a1.9,1.9,0,0,1,2.637.9,3,3,0,0,1,.476,1.417l-.717.157a2.628,2.628,0,0,0-.378-1.236c-.465-.772-1.1-.788-1.489-.555-.529.318-.582.819-.414,1.781.207,1.179.039,1.943-.792,2.443-.872.525-2.017.334-2.82-1a3.413,3.413,0,0,1-.508-1.66Z" transform="translate(-784.349 -868.766)"/><rect class="l" width="0.71" height="1.052" transform="matrix(0.516, 0.857, -0.857, 0.516, 6.787, 0.33)"/><rect class="l" width="0.71" height="1.052" transform="matrix(0.516, 0.857, -0.857, 0.516, 0.981, 3.826)"/></g></g><g transform="translate(24.069 36.057)"><ellipse class="i" cx="6.982" cy="6.982" rx="6.982" ry="6.982" transform="translate(0 0)"/><ellipse class="j" cx="6.07" cy="6.07" rx="6.07" ry="6.07" transform="translate(0.913 1.018)"/><ellipse class="k" cx="5.871" cy="5.871" rx="5.871" ry="5.871" transform="translate(1.111 1.111)"/><g transform="translate(2.996 5.056)"><g transform="translate(0.476)"><path class="l" d="M1065.7,879.3a3.022,3.022,0,0,0-.395,1.537c.02.871.493,1.37,1.158,1.354.617-.015.961-.375,1.282-1.274.356-1.086.9-1.765,1.829-1.787a1.9,1.9,0,0,1,1.842,2.092,3,3,0,0,1-.289,1.466l-.7-.219a2.632,2.632,0,0,0,.284-1.26c-.021-.9-.568-1.231-1.018-1.22-.617.015-.911.423-1.242,1.342-.4,1.126-.929,1.707-1.9,1.729-1.018.024-1.917-.709-1.954-2.266a3.411,3.411,0,0,1,.381-1.694Z" transform="translate(-1064.598 -879.097)"/></g><rect class="l" width="0.71" height="1.052" transform="translate(7.827 1.479) rotate(88.652)"/><rect class="l" width="0.71" height="1.052" transform="translate(1.052 1.639) rotate(88.652)"/></g></g><g transform="translate(16.813 36.048)"><ellipse class="i" cx="6.982" cy="6.982" rx="6.982" ry="6.982"/><ellipse class="j" cx="6.07" cy="6.07" rx="6.07" ry="6.07" transform="translate(0.913 1.018)"/><ellipse class="k" cx="5.871" cy="5.871" rx="5.871" ry="5.871" transform="translate(1.111 1.111)"/><g transform="translate(4.733 3.053)"><g transform="translate(0 0.579)"><path class="l" d="M980.7,864.522a3.016,3.016,0,0,0,1.5.527c.87.055,1.407-.372,1.449-1.036.039-.616-.29-.99-1.158-1.389-1.051-.449-1.68-1.049-1.621-1.978a1.9,1.9,0,0,1,2.245-1.653,3,3,0,0,1,1.436.415l-.279.679a2.629,2.629,0,0,0-1.231-.392c-.9-.057-1.275.458-1.3.908-.039.616.342.944,1.229,1.354,1.087.5,1.619,1.075,1.558,2.042-.065,1.016-.874,1.848-2.427,1.749a3.411,3.411,0,0,1-1.654-.527Z" transform="translate(-980.435 -858.987)"/></g><rect class="l" width="0.71" height="1.052" transform="translate(2.08 0) rotate(3.645)"/><rect class="l" width="0.71" height="1.052" transform="translate(1.649 6.763) rotate(3.645)"/></g></g><g transform="translate(3.135 7.124)"><path class="m" d="M801.29,407.165V402H776.55v5.174a4.168,4.168,0,0,0-3.55,4.366v31.967a1.347,1.347,0,0,0,1.234,1.429h29.589a1.347,1.347,0,0,0,1.235-1.429V411.539C805.059,409.137,803.364,407.171,801.29,407.165Z" transform="translate(-769.367 -402)"/><path class="n" d="M754.754,406.239V402H726.11v4.247a4.388,4.388,0,0,0-4.11,4.366v32.893a1.433,1.433,0,0,0,1.429,1.429h34.258a1.433,1.433,0,0,0,1.429-1.429V410.613A4.387,4.387,0,0,0,754.754,406.239Z" transform="translate(-722 -402)"/></g></g><g transform="translate(3.949 51.221)"><g class="o" transform="translate(0.499 6.483)"><path class="p" d="M171.312,988.34c-5.558,0-7.728-1.652-7.728-2.411h0s-.229-1.379.433-1.379a29.4,29.4,0,0,0,7.147,1.416,19.344,19.344,0,0,0,7.4-1.416c.662,0,.437.62.437,1.379h0C179,986.688,176.85,988.34,171.312,988.34Z" transform="translate(-163.546 -982.946)"/><path class="i" d="M179.536,964.08c0-1.135-3.464-2.056-7.736-2.056s-7.736.921-7.736,2.056,3.466,2.295,7.738,2.295S179.536,965.216,179.536,964.08Z" transform="translate(-164.027 -962.024)"/><path class="j" d="M192.444,968.107c0-.924-3.081-1.673-6.881-1.673s-6.881.749-6.881,1.673,3.082,1.867,6.882,1.867S192.444,969.031,192.444,968.107Z" transform="translate(-177.605 -966.12)"/><path class="k" d="M196.531,970.084c0-.886-2.972-1.6-6.638-1.6s-6.638.718-6.638,1.6,2.973,1.79,6.639,1.79S196.531,970.97,196.531,970.084Z" transform="translate(-181.852 -968.02)"/><path class="l" d="M235.794,979.134a1.209,1.209,0,0,0,.628-.541c.124-.322-.242-.536-.877-.573a2.051,2.051,0,0,0-1.428.387,2.966,2.966,0,0,1-2.031.541c-.98-.057-1.587-.414-1.4-.888a1.029,1.029,0,0,1,.516-.522l.629.125a.988.988,0,0,0-.477.446c-.128.333.336.489.766.514a1.983,1.983,0,0,0,1.4-.415,3.075,3.075,0,0,1,2.088-.516c.971.056,1.7.384,1.482.959a1.25,1.25,0,0,1-.641.6Z" transform="translate(-225.869 -976.434)"/><path class="l" d="M223.64,984.074l-.1.263-1-.058.1-.263Z" transform="translate(-218.333 -982.45)"/><path class="l" d="M314.317,989.322l-.1.262-1-.058.1-.263Z" transform="translate(-302.55 -987.323)"/></g><g transform="translate(2.422 4.916)"><path class="p" d="M198.312,966.34c-5.558,0-7.728-1.652-7.728-2.411h0s-.229-1.379.433-1.379a29.4,29.4,0,0,0,7.147,1.416,19.341,19.341,0,0,0,7.4-1.416c.662,0,.437.62.437,1.379h0C206,964.688,203.85,966.34,198.312,966.34Z" transform="translate(-190.546 -960.946)"/><path class="i" d="M206.536,942.08c0-1.136-3.464-2.056-7.736-2.056s-7.736.921-7.736,2.056,3.466,2.295,7.738,2.295S206.536,943.216,206.536,942.08Z" transform="translate(-191.027 -940.024)"/><path class="j" d="M219.444,946.107c0-.924-3.081-1.673-6.881-1.673s-6.881.749-6.881,1.673,3.082,1.867,6.882,1.867S219.444,947.03,219.444,946.107Z" transform="translate(-204.605 -944.12)"/><path class="k" d="M223.531,948.084c0-.886-2.972-1.6-6.638-1.6s-6.638.718-6.638,1.6,2.974,1.79,6.639,1.79S223.531,948.97,223.531,948.084Z" transform="translate(-208.852 -946.02)"/><path class="l" d="M262.794,957.133a1.206,1.206,0,0,0,.628-.541c.124-.322-.242-.536-.877-.573a2.053,2.053,0,0,0-1.428.387,2.966,2.966,0,0,1-2.031.541c-.98-.057-1.587-.414-1.4-.888a1.03,1.03,0,0,1,.516-.521l.629.125a.988.988,0,0,0-.477.446c-.128.333.336.489.766.514a1.982,1.982,0,0,0,1.4-.415,3.075,3.075,0,0,1,2.088-.516c.971.056,1.7.383,1.482.959a1.252,1.252,0,0,1-.641.6Z" transform="translate(-252.869 -954.433)"/><path class="l" d="M250.64,962.074l-.1.263-1-.058.1-.263Z" transform="translate(-245.333 -960.45)"/><path class="l" d="M341.317,967.322l-.1.263-1-.058.1-.262Z" transform="translate(-329.55 -965.324)"/></g><g transform="translate(0 3.776)"><path class="p" d="M164.312,950.34c-5.558,0-7.728-1.652-7.728-2.411h0s-.229-1.379.433-1.379a29.4,29.4,0,0,0,7.147,1.416,19.345,19.345,0,0,0,7.4-1.416c.662,0,.437.62.437,1.379h0C172,948.688,169.85,950.34,164.312,950.34Z" transform="translate(-156.546 -944.946)"/><path class="i" d="M172.536,926.08c0-1.136-3.464-2.056-7.736-2.056s-7.736.92-7.736,2.056,3.466,2.295,7.738,2.295S172.536,927.216,172.536,926.08Z" transform="translate(-157.027 -924.024)"/><path class="j" d="M185.444,930.107c0-.924-3.081-1.673-6.881-1.673s-6.881.749-6.881,1.673,3.082,1.867,6.882,1.867S185.444,931.031,185.444,930.107Z" transform="translate(-170.605 -928.12)"/><path class="k" d="M189.531,932.084c0-.886-2.972-1.6-6.638-1.6s-6.638.718-6.638,1.6,2.974,1.79,6.639,1.79S189.531,932.97,189.531,932.084Z" transform="translate(-174.852 -930.02)"/><path class="l" d="M228.794,941.133a1.207,1.207,0,0,0,.628-.541c.124-.322-.242-.536-.877-.572a2.053,2.053,0,0,0-1.428.387,2.965,2.965,0,0,1-2.031.541c-.98-.057-1.587-.414-1.4-.888a1.03,1.03,0,0,1,.516-.522l.629.125a.989.989,0,0,0-.477.446c-.128.333.336.489.766.514a1.982,1.982,0,0,0,1.4-.415,3.074,3.074,0,0,1,2.088-.516c.971.056,1.7.383,1.482.959a1.251,1.251,0,0,1-.641.6Z" transform="translate(-218.869 -938.434)"/><path class="l" d="M216.64,946.074l-.1.263-1-.058.1-.262Z" transform="translate(-211.333 -944.45)"/><path class="l" d="M307.317,951.322l-.1.262-1-.058.1-.263Z" transform="translate(-295.55 -949.324)"/></g><g transform="translate(1.354 2.137)"><path class="p" d="M183.312,927.34c-5.558,0-7.728-1.652-7.728-2.411h0s-.229-1.378.433-1.378a29.4,29.4,0,0,0,7.147,1.416,19.345,19.345,0,0,0,7.4-1.416c.662,0,.437.62.437,1.378h0C191,925.688,188.85,927.34,183.312,927.34Z" transform="translate(-175.546 -921.946)"/><path class="i" d="M191.536,903.08c0-1.136-3.464-2.056-7.736-2.056s-7.736.92-7.736,2.056,3.466,2.295,7.738,2.295S191.536,904.216,191.536,903.08Z" transform="translate(-176.027 -901.024)"/><path class="j" d="M204.444,907.107c0-.924-3.081-1.673-6.881-1.673s-6.881.749-6.881,1.673,3.082,1.867,6.882,1.867S204.444,908.031,204.444,907.107Z" transform="translate(-189.605 -905.12)"/><path class="k" d="M208.531,909.084c0-.886-2.972-1.6-6.638-1.6s-6.638.718-6.638,1.6,2.974,1.79,6.639,1.79S208.531,909.97,208.531,909.084Z" transform="translate(-193.852 -907.02)"/><path class="l" d="M247.794,918.133a1.207,1.207,0,0,0,.628-.541c.124-.322-.242-.536-.877-.573a2.053,2.053,0,0,0-1.428.387,2.967,2.967,0,0,1-2.031.541c-.98-.057-1.587-.414-1.4-.888a1.03,1.03,0,0,1,.516-.522l.629.125a.988.988,0,0,0-.477.446c-.128.333.336.49.766.514a1.982,1.982,0,0,0,1.4-.415,3.073,3.073,0,0,1,2.088-.516c.971.056,1.7.383,1.482.959a1.25,1.25,0,0,1-.641.6Z" transform="translate(-237.869 -915.433)"/><path class="l" d="M235.64,923.074l-.1.262-1-.058.1-.262Z" transform="translate(-230.333 -921.449)"/><path class="l" d="M326.317,928.322l-.1.262-1-.058.1-.263Z" transform="translate(-314.55 -926.324)"/></g><g transform="translate(1.567)"><path class="p" d="M186.312,897.34c-5.558,0-7.728-1.652-7.728-2.411h0s-.229-1.379.433-1.379a29.4,29.4,0,0,0,7.147,1.416,19.343,19.343,0,0,0,7.4-1.416c.662,0,.437.62.437,1.379h0C194,895.688,191.85,897.34,186.312,897.34Z" transform="translate(-178.546 -891.946)"/><path class="i" d="M194.536,873.08c0-1.135-3.463-2.056-7.736-2.056s-7.736.921-7.736,2.056,3.466,2.3,7.738,2.3S194.536,874.215,194.536,873.08Z" transform="translate(-179.027 -871.024)"/><path class="j" d="M207.444,877.107c0-.924-3.081-1.673-6.881-1.673s-6.881.749-6.881,1.673,3.082,1.867,6.882,1.867S207.444,878.03,207.444,877.107Z" transform="translate(-192.605 -875.12)"/><path class="k" d="M211.531,879.084c0-.886-2.972-1.6-6.637-1.6s-6.638.718-6.638,1.6,2.974,1.79,6.639,1.79S211.531,879.97,211.531,879.084Z" transform="translate(-196.852 -877.02)"/><path class="l" d="M250.794,888.134a1.206,1.206,0,0,0,.628-.541c.124-.322-.242-.536-.877-.572a2.053,2.053,0,0,0-1.428.387,2.966,2.966,0,0,1-2.031.541c-.98-.057-1.587-.414-1.4-.888a1.029,1.029,0,0,1,.516-.522l.629.125a.989.989,0,0,0-.477.446c-.128.333.336.489.766.514a1.983,1.983,0,0,0,1.4-.415,3.074,3.074,0,0,1,2.088-.516c.971.056,1.7.384,1.482.959a1.251,1.251,0,0,1-.641.6Z" transform="translate(-240.869 -885.434)"/><path class="l" d="M238.64,893.074l-.1.263-1-.058.1-.263Z" transform="translate(-233.333 -891.449)"/><path class="l" d="M329.317,898.322l-.1.263-1-.058.1-.263Z" transform="translate(-317.55 -896.324)"/></g></g><g transform="translate(18.411 41.603)"><g transform="translate(6.768 16.243)"><path class="p" d="M462.312,990.34c-5.558,0-7.728-1.652-7.728-2.411h0s-.229-1.379.433-1.379a29.4,29.4,0,0,0,7.147,1.416,19.345,19.345,0,0,0,7.4-1.416c.662,0,.437.62.437,1.379h0C470,988.688,467.85,990.34,462.312,990.34Z" transform="translate(-454.546 -984.946)"/><path class="i" d="M470.536,966.08c0-1.136-3.464-2.056-7.736-2.056s-7.736.921-7.736,2.056,3.466,2.3,7.738,2.3S470.536,967.216,470.536,966.08Z" transform="translate(-455.027 -964.024)"/><path class="j" d="M483.444,970.107c0-.924-3.081-1.673-6.881-1.673s-6.881.749-6.881,1.673,3.082,1.867,6.882,1.867S483.444,971.031,483.444,970.107Z" transform="translate(-468.605 -968.12)"/><path class="k" d="M487.531,972.084c0-.886-2.972-1.6-6.638-1.6s-6.638.718-6.638,1.6,2.974,1.79,6.639,1.79S487.531,972.97,487.531,972.084Z" transform="translate(-472.852 -970.02)"/><path class="l" d="M526.795,981.133a1.207,1.207,0,0,0,.628-.541c.124-.322-.242-.536-.877-.573a2.052,2.052,0,0,0-1.428.387,2.966,2.966,0,0,1-2.031.541c-.98-.057-1.587-.414-1.4-.888a1.029,1.029,0,0,1,.516-.521l.629.125a.99.99,0,0,0-.477.446c-.128.333.336.49.766.514a1.982,1.982,0,0,0,1.4-.415,3.073,3.073,0,0,1,2.088-.516c.971.056,1.7.383,1.482.959a1.251,1.251,0,0,1-.641.6Z" transform="translate(-516.869 -978.434)"/><path class="l" d="M514.64,986.074l-.1.263-1-.058.1-.262Z" transform="translate(-509.333 -984.449)"/><path class="l" d="M605.317,991.322l-.1.262-1-.058.1-.262Z" transform="translate(-593.55 -989.324)"/></g><g transform="translate(3.633 14.676)"><path class="p" d="M418.312,968.34c-5.558,0-7.728-1.652-7.728-2.411h0s-.229-1.378.433-1.378a29.4,29.4,0,0,0,7.147,1.416,19.344,19.344,0,0,0,7.4-1.416c.662,0,.437.62.437,1.378h0C426,966.688,423.85,968.34,418.312,968.34Z" transform="translate(-410.546 -962.946)"/><path class="i" d="M426.536,944.08c0-1.136-3.464-2.056-7.736-2.056s-7.736.92-7.736,2.056,3.466,2.295,7.738,2.295S426.536,945.216,426.536,944.08Z" transform="translate(-411.027 -942.024)"/><path class="j" d="M439.444,948.107c0-.924-3.081-1.673-6.881-1.673s-6.881.749-6.881,1.673,3.082,1.867,6.882,1.867S439.444,949.03,439.444,948.107Z" transform="translate(-424.605 -946.12)"/><path class="k" d="M443.531,950.084c0-.886-2.972-1.6-6.638-1.6s-6.638.718-6.638,1.6,2.974,1.79,6.639,1.79S443.531,950.969,443.531,950.084Z" transform="translate(-428.852 -948.02)"/><path class="l" d="M482.794,959.134a1.207,1.207,0,0,0,.628-.541c.124-.322-.242-.536-.877-.573a2.053,2.053,0,0,0-1.428.387,2.967,2.967,0,0,1-2.031.541c-.98-.057-1.587-.414-1.4-.888a1.03,1.03,0,0,1,.516-.521l.629.125a.987.987,0,0,0-.477.446c-.128.333.336.489.766.514a1.985,1.985,0,0,0,1.4-.415,3.074,3.074,0,0,1,2.088-.516c.971.056,1.7.383,1.482.959a1.252,1.252,0,0,1-.641.6Z" transform="translate(-472.869 -956.434)"/><path class="l" d="M470.64,964.075l-.1.263-1-.058.1-.262Z" transform="translate(-465.333 -962.45)"/><path class="l" d="M561.317,969.322l-.1.263-1-.058.1-.263Z" transform="translate(-549.55 -967.323)"/></g><g transform="translate(3.705 13.037)"><path class="p" d="M419.312,945.34c-5.558,0-7.728-1.652-7.728-2.411h0s-.229-1.379.433-1.379a29.4,29.4,0,0,0,7.147,1.416,19.344,19.344,0,0,0,7.4-1.416c.662,0,.437.62.437,1.379h0C427,943.688,424.85,945.34,419.312,945.34Z" transform="translate(-411.546 -939.946)"/><path class="i" d="M427.536,921.08c0-1.136-3.464-2.056-7.736-2.056s-7.736.92-7.736,2.056,3.466,2.295,7.738,2.295S427.536,922.215,427.536,921.08Z" transform="translate(-412.027 -919.024)"/><path class="j" d="M440.444,925.107c0-.924-3.081-1.673-6.881-1.673s-6.881.749-6.881,1.673,3.082,1.867,6.882,1.867S440.444,926.03,440.444,925.107Z" transform="translate(-425.605 -923.12)"/><path class="k" d="M444.531,927.084c0-.886-2.972-1.6-6.638-1.6s-6.638.718-6.638,1.6,2.974,1.79,6.639,1.79S444.531,927.969,444.531,927.084Z" transform="translate(-429.852 -925.02)"/><path class="l" d="M483.794,936.133a1.206,1.206,0,0,0,.628-.541c.124-.322-.242-.536-.877-.573a2.053,2.053,0,0,0-1.428.387,2.966,2.966,0,0,1-2.031.541c-.98-.057-1.587-.414-1.4-.888a1.029,1.029,0,0,1,.516-.522l.629.125a.99.99,0,0,0-.477.446c-.128.333.336.489.766.514a1.982,1.982,0,0,0,1.4-.415,3.072,3.072,0,0,1,2.088-.516c.971.056,1.7.383,1.482.959a1.25,1.25,0,0,1-.641.6Z" transform="translate(-473.869 -933.433)"/><path class="l" d="M471.64,941.074l-.1.263-1-.058.1-.263Z" transform="translate(-466.333 -939.449)"/><path class="l" d="M562.317,946.322l-.1.262-1-.058.1-.263Z" transform="translate(-550.55 -944.324)"/></g><g transform="translate(3.918 11.47)"><path class="p" d="M422.312,923.34c-5.558,0-7.728-1.652-7.728-2.411h0s-.229-1.379.433-1.379a29.4,29.4,0,0,0,7.147,1.416,19.343,19.343,0,0,0,7.4-1.416c.662,0,.437.62.437,1.379h0C430,921.688,427.85,923.34,422.312,923.34Z" transform="translate(-414.546 -917.946)"/><path class="i" d="M430.536,899.08c0-1.135-3.464-2.056-7.736-2.056s-7.736.921-7.736,2.056,3.466,2.3,7.738,2.3S430.536,900.216,430.536,899.08Z" transform="translate(-415.027 -897.024)"/><path class="j" d="M443.444,903.107c0-.924-3.081-1.673-6.881-1.673s-6.88.749-6.88,1.673,3.082,1.867,6.882,1.867S443.444,904.031,443.444,903.107Z" transform="translate(-428.605 -901.12)"/><path class="k" d="M447.531,905.084c0-.886-2.972-1.6-6.638-1.6s-6.638.718-6.638,1.6,2.974,1.79,6.639,1.79S447.531,905.97,447.531,905.084Z" transform="translate(-432.852 -903.02)"/><path class="l" d="M474.64,919.074l-.1.262-1-.058.1-.262Z" transform="translate(-469.333 -917.449)"/><path class="l" d="M565.317,924.322l-.1.263-1-.058.1-.263Z" transform="translate(-553.55 -922.324)"/></g><g transform="translate(6.483 10.33)"><path class="p" d="M458.312,907.34c-5.558,0-7.728-1.653-7.728-2.411h0s-.229-1.379.433-1.379a29.4,29.4,0,0,0,7.147,1.416,19.344,19.344,0,0,0,7.4-1.416c.662,0,.437.62.437,1.379h0C466,905.688,463.85,907.34,458.312,907.34Z" transform="translate(-450.546 -901.946)"/><path class="i" d="M466.536,883.08c0-1.136-3.464-2.056-7.736-2.056s-7.736.921-7.736,2.056,3.466,2.295,7.738,2.295S466.536,884.216,466.536,883.08Z" transform="translate(-451.027 -881.024)"/><path class="j" d="M479.444,887.107c0-.924-3.081-1.673-6.881-1.673s-6.881.749-6.881,1.673,3.082,1.867,6.882,1.867S479.444,888.03,479.444,887.107Z" transform="translate(-464.605 -885.12)"/><path class="k" d="M483.531,889.084c0-.886-2.972-1.6-6.637-1.6s-6.638.718-6.638,1.6,2.974,1.79,6.639,1.79S483.531,889.97,483.531,889.084Z" transform="translate(-468.852 -887.02)"/><path class="l" d="M522.795,898.133a1.205,1.205,0,0,0,.628-.541c.124-.322-.242-.536-.877-.572a2.054,2.054,0,0,0-1.428.387,2.967,2.967,0,0,1-2.031.541c-.98-.057-1.587-.414-1.4-.888a1.03,1.03,0,0,1,.516-.522l.629.125a.988.988,0,0,0-.477.446c-.128.333.336.489.766.514a1.983,1.983,0,0,0,1.4-.415,3.073,3.073,0,0,1,2.088-.516c.971.056,1.7.383,1.482.959a1.251,1.251,0,0,1-.641.6Z" transform="translate(-512.869 -895.434)"/><path class="l" d="M510.64,903.075l-.1.262-1-.058.1-.263Z" transform="translate(-505.333 -901.449)"/><path class="l" d="M601.317,908.322l-.1.263-1-.058.1-.263Z" transform="translate(-589.55 -906.323)"/></g><g transform="translate(2.707 8.121)"><path class="p" d="M405.312,876.341c-5.558,0-7.728-1.652-7.728-2.411h0s-.229-1.379.433-1.379a29.4,29.4,0,0,0,7.147,1.416,19.345,19.345,0,0,0,7.4-1.416c.662,0,.437.62.437,1.379h0C413,874.688,410.85,876.341,405.312,876.341Z" transform="translate(-397.546 -870.946)"/><path class="i" d="M413.536,852.08c0-1.135-3.464-2.056-7.736-2.056s-7.736.921-7.736,2.056,3.466,2.295,7.738,2.295S413.536,853.215,413.536,852.08Z" transform="translate(-398.027 -850.024)"/><path class="j" d="M426.444,856.107c0-.924-3.081-1.673-6.881-1.673s-6.881.749-6.881,1.673,3.082,1.867,6.883,1.867S426.444,857.03,426.444,856.107Z" transform="translate(-411.605 -854.12)"/><path class="k" d="M430.531,858.084c0-.886-2.972-1.6-6.638-1.6s-6.638.718-6.638,1.6,2.973,1.79,6.639,1.79S430.531,858.97,430.531,858.084Z" transform="translate(-415.852 -856.02)"/><path class="l" d="M469.795,867.133a1.206,1.206,0,0,0,.628-.541c.124-.322-.242-.536-.877-.573a2.053,2.053,0,0,0-1.428.387,2.967,2.967,0,0,1-2.031.541c-.98-.057-1.587-.414-1.4-.888a1.03,1.03,0,0,1,.516-.521l.629.125a.989.989,0,0,0-.477.446c-.128.333.336.489.766.514a1.982,1.982,0,0,0,1.4-.415,3.075,3.075,0,0,1,2.088-.516c.971.056,1.7.384,1.482.959a1.251,1.251,0,0,1-.641.6Z" transform="translate(-459.869 -864.434)"/><path class="l" d="M457.64,872.074l-.1.263-1-.058.1-.262Z" transform="translate(-452.333 -870.45)"/><path class="l" d="M548.317,877.322l-.1.263-1-.058.1-.262Z" transform="translate(-536.55 -875.324)"/></g><g transform="translate(0 6.768)"><path class="p" d="M367.312,857.34c-5.558,0-7.728-1.652-7.728-2.411h0s-.229-1.379.433-1.379a29.4,29.4,0,0,0,7.147,1.416,19.344,19.344,0,0,0,7.4-1.416c.662,0,.437.62.437,1.379h0C375,855.688,372.85,857.34,367.312,857.34Z" transform="translate(-359.546 -851.946)"/><path class="i" d="M375.536,833.08c0-1.136-3.464-2.056-7.736-2.056s-7.736.92-7.736,2.056,3.466,2.295,7.738,2.295S375.536,834.215,375.536,833.08Z" transform="translate(-360.027 -831.024)"/><path class="j" d="M388.444,837.107c0-.924-3.08-1.673-6.881-1.673s-6.881.749-6.881,1.673,3.082,1.867,6.883,1.867S388.444,838.03,388.444,837.107Z" transform="translate(-373.605 -835.12)"/><path class="k" d="M392.531,839.084c0-.886-2.972-1.6-6.638-1.6s-6.638.718-6.638,1.6,2.973,1.79,6.639,1.79S392.531,839.97,392.531,839.084Z" transform="translate(-377.852 -837.02)"/><path class="l" d="M431.794,848.134a1.206,1.206,0,0,0,.628-.541c.124-.323-.242-.536-.877-.572a2.052,2.052,0,0,0-1.428.387,2.966,2.966,0,0,1-2.031.541c-.98-.057-1.587-.414-1.4-.888a1.029,1.029,0,0,1,.516-.522l.629.125a.99.99,0,0,0-.477.446c-.128.333.337.489.766.514a1.984,1.984,0,0,0,1.4-.415,3.073,3.073,0,0,1,2.088-.516c.971.056,1.7.384,1.482.959a1.252,1.252,0,0,1-.641.6Z" transform="translate(-421.869 -845.434)"/><path class="l" d="M419.64,853.074l-.1.263-1-.058.1-.263Z" transform="translate(-414.333 -851.449)"/><path class="l" d="M510.317,858.322l-.1.263-1-.058.1-.263Z" transform="translate(-498.55 -856.323)"/></g><g transform="translate(4.916 5.343)"><path class="p" d="M436.312,837.34c-5.558,0-7.728-1.653-7.728-2.411h0s-.229-1.378.433-1.378a29.4,29.4,0,0,0,7.147,1.416,19.343,19.343,0,0,0,7.4-1.416c.662,0,.437.62.437,1.378h0C444,835.688,441.85,837.34,436.312,837.34Z" transform="translate(-428.546 -831.946)"/><path class="i" d="M444.536,813.08c0-1.136-3.464-2.056-7.736-2.056s-7.736.921-7.736,2.056,3.466,2.295,7.738,2.295S444.536,814.216,444.536,813.08Z" transform="translate(-429.027 -811.024)"/><path class="j" d="M457.444,817.107c0-.924-3.081-1.673-6.881-1.673s-6.881.749-6.881,1.673,3.082,1.867,6.882,1.867S457.444,818.03,457.444,817.107Z" transform="translate(-442.605 -815.12)"/><path class="k" d="M461.531,819.084c0-.886-2.972-1.6-6.638-1.6s-6.638.718-6.638,1.6,2.973,1.79,6.639,1.79S461.531,819.97,461.531,819.084Z" transform="translate(-446.852 -817.02)"/><path class="l" d="M500.794,828.133a1.206,1.206,0,0,0,.628-.541c.124-.322-.242-.536-.877-.572a2.052,2.052,0,0,0-1.428.387,2.965,2.965,0,0,1-2.031.541c-.98-.057-1.587-.414-1.4-.888a1.03,1.03,0,0,1,.516-.521l.629.125a.988.988,0,0,0-.477.446c-.128.333.336.489.766.514a1.983,1.983,0,0,0,1.4-.415,3.074,3.074,0,0,1,2.088-.516c.971.056,1.7.384,1.482.959a1.252,1.252,0,0,1-.641.6Z" transform="translate(-490.869 -825.434)"/><path class="l" d="M488.64,833.074l-.1.263-1-.058.1-.262Z" transform="translate(-483.333 -831.45)"/><path class="l" d="M579.317,838.322l-.1.263-1-.058.1-.263Z" transform="translate(-567.55 -836.324)"/></g><g transform="translate(2.066 4.132)"><path class="p" d="M396.312,820.34c-5.558,0-7.728-1.652-7.728-2.411h0s-.229-1.378.433-1.378a29.4,29.4,0,0,0,7.147,1.416,19.345,19.345,0,0,0,7.4-1.416c.662,0,.437.62.437,1.378h0C404,818.688,401.85,820.34,396.312,820.34Z" transform="translate(-388.546 -814.946)"/><path class="i" d="M404.536,796.08c0-1.136-3.464-2.056-7.736-2.056s-7.736.921-7.736,2.056,3.466,2.295,7.738,2.295S404.536,797.215,404.536,796.08Z" transform="translate(-389.027 -794.024)"/><path class="j" d="M417.444,800.107c0-.924-3.081-1.673-6.881-1.673s-6.881.749-6.881,1.673,3.082,1.867,6.883,1.867S417.444,801.03,417.444,800.107Z" transform="translate(-402.605 -798.12)"/><path class="k" d="M421.531,802.084c0-.886-2.972-1.6-6.638-1.6s-6.638.718-6.638,1.6,2.973,1.79,6.639,1.79S421.531,802.969,421.531,802.084Z" transform="translate(-406.852 -800.02)"/><path class="l" d="M460.794,811.133a1.206,1.206,0,0,0,.628-.541c.124-.322-.242-.536-.877-.573a2.052,2.052,0,0,0-1.428.387,2.967,2.967,0,0,1-2.031.541c-.98-.057-1.587-.414-1.4-.888a1.03,1.03,0,0,1,.516-.521l.629.125a.988.988,0,0,0-.477.446c-.128.333.336.489.766.514a1.982,1.982,0,0,0,1.4-.415,3.074,3.074,0,0,1,2.088-.516c.971.056,1.7.384,1.482.959a1.25,1.25,0,0,1-.641.6Z" transform="translate(-450.869 -808.434)"/><path class="l" d="M448.64,816.074l-.1.263-1-.058.1-.262Z" transform="translate(-443.333 -814.45)"/><path class="l" d="M539.317,821.322l-.1.263-1-.058.1-.263Z" transform="translate(-527.55 -819.324)"/></g><g transform="translate(4.844 2.565)"><path class="p" d="M435.312,798.34c-5.558,0-7.728-1.653-7.728-2.411h0s-.229-1.378.433-1.378a29.4,29.4,0,0,0,7.147,1.416,19.344,19.344,0,0,0,7.4-1.416c.662,0,.437.62.437,1.378h0C443,796.688,440.85,798.34,435.312,798.34Z" transform="translate(-427.546 -792.946)"/><path class="i" d="M443.536,774.08c0-1.135-3.464-2.056-7.736-2.056s-7.736.921-7.736,2.056,3.466,2.295,7.738,2.295S443.536,775.216,443.536,774.08Z" transform="translate(-428.027 -772.024)"/><path class="j" d="M456.444,778.107c0-.924-3.081-1.673-6.881-1.673s-6.881.749-6.881,1.673,3.082,1.867,6.882,1.867S456.444,779.031,456.444,778.107Z" transform="translate(-441.605 -776.12)"/><path class="k" d="M460.531,780.084c0-.886-2.972-1.6-6.638-1.6s-6.638.718-6.638,1.6,2.974,1.79,6.639,1.79S460.531,780.97,460.531,780.084Z" transform="translate(-445.852 -778.02)"/><path class="l" d="M499.794,789.134a1.208,1.208,0,0,0,.628-.541c.124-.322-.242-.536-.877-.573a2.051,2.051,0,0,0-1.428.387,2.967,2.967,0,0,1-2.031.541c-.98-.057-1.587-.414-1.4-.888a1.028,1.028,0,0,1,.516-.522l.629.125a.989.989,0,0,0-.477.446c-.128.333.336.489.766.514a1.984,1.984,0,0,0,1.4-.415,3.074,3.074,0,0,1,2.088-.516c.971.056,1.7.384,1.482.959a1.251,1.251,0,0,1-.641.6Z" transform="translate(-489.869 -786.434)"/><path class="l" d="M487.64,794.074l-.1.263-1-.058.1-.263Z" transform="translate(-482.333 -792.449)"/><path class="l" d="M578.317,799.322l-.1.263-1-.058.1-.263Z" transform="translate(-566.55 -797.323)"/></g><g transform="translate(6.127)"><path class="p" d="M453.312,762.34c-5.558,0-7.728-1.652-7.728-2.411h0s-.229-1.379.433-1.379a29.4,29.4,0,0,0,7.147,1.416,19.344,19.344,0,0,0,7.4-1.416c.662,0,.437.62.437,1.379h0C461,760.688,458.85,762.34,453.312,762.34Z" transform="translate(-445.546 -756.946)"/><path class="i" d="M461.536,738.08c0-1.136-3.464-2.056-7.736-2.056s-7.736.921-7.736,2.056,3.466,2.3,7.738,2.3S461.536,739.215,461.536,738.08Z" transform="translate(-446.027 -736.024)"/><path class="j" d="M474.444,742.107c0-.924-3.08-1.673-6.881-1.673s-6.881.749-6.881,1.673,3.082,1.867,6.883,1.867S474.444,743.031,474.444,742.107Z" transform="translate(-459.605 -740.12)"/><path class="k" d="M478.531,744.084c0-.886-2.972-1.6-6.637-1.6s-6.638.718-6.638,1.6,2.974,1.79,6.639,1.79S478.531,744.97,478.531,744.084Z" transform="translate(-463.852 -742.02)"/><path class="l" d="M517.794,753.134a1.207,1.207,0,0,0,.628-.541c.124-.322-.242-.536-.877-.573a2.054,2.054,0,0,0-1.428.387,2.967,2.967,0,0,1-2.031.541c-.98-.057-1.587-.414-1.4-.888a1.028,1.028,0,0,1,.516-.521l.629.125a.989.989,0,0,0-.477.446c-.128.333.336.49.766.514a1.982,1.982,0,0,0,1.4-.415,3.073,3.073,0,0,1,2.088-.516c.971.056,1.7.383,1.482.959a1.25,1.25,0,0,1-.641.6Z" transform="translate(-507.869 -750.434)"/><path class="l" d="M505.64,758.074l-.1.263-1-.058.1-.262Z" transform="translate(-500.333 -756.45)"/><path class="l" d="M596.317,763.322l-.1.262-1-.058.1-.263Z" transform="translate(-584.55 -761.324)"/></g></g><g transform="translate(20.726 4.191)"><path class="q" d="M530.577,272.828l.593-2.714,1.395.118.222,2.657-.07,1.672Z" transform="translate(-516.918 -265.894)"/><path class="r" d="M364.1,214.494c-1.553.644-1.71,4.554,2.363,4.351.586-.029-1.384,1.145-.371,2.16,1.364,1.368,4.536,1.631,6.708.011,1.089-.812.668-3.7,2.17-3.942a1.353,1.353,0,0,0,.855-.969,3.917,3.917,0,0,1,2.008-2.328,1.44,1.44,0,0,0-.361-2.742c-1.1-.191-1.957-.4-2.709.552-.656.828-.445,1.5-.946,1.612-.346.076-.808-.309-1.754-.278-2,.066-2.181,1.283-2.632,1.789C368.287,216,366.779,213.383,364.1,214.494Z" transform="translate(-361.36 -210.874)"/><path class="q" d="M529.474,569.531l-.75-.106-1.541-2.1s-3.215-10.469-1.132-12.821c.481-.543,2.25-.049,2.25-.049l-.3,12.494Z" transform="translate(-512.063 -529.786)"/><path class="s" d="M549.069,735.078c.029.008.119,1.566.119,1.566l.158.007s.154-1.518.189-1.516c.464.03.6,1.52,1.2,1.52.013,0,.691,0,.7,0,.141-.125-.2-.393-.2-.393a1.376,1.376,0,0,1-.549-.262c-.424-.515-1.037-1.631-1.176-1.777a.729.729,0,0,0-.514-.184S548.8,735.006,549.069,735.078Z" transform="translate(-533.961 -696.767)"/><path class="t" d="M497.024,573.635l1.432,2.167-.614-.133-1.676-1.983s-3.478-10.876-2.241-12.417c.454-.565,2.9,0,2.9,0Z" transform="translate(-482.63 -536.073)"/><rect class="t" width="0.972" height="0.729" transform="matrix(0.909, 0.416, -0.416, 0.909, 24.051, 10.985)"/><path class="t" d="M680.686,368.88c.057-.309.152-.505.791-.356.4.093.331.207.274.516s-.279.448-.681.375S680.63,369.189,680.686,368.88Z" transform="translate(-656.314 -357.245)"/><path class="u" d="M567.652,303.513s-4.007-.958-5.275-1.486c-.357-.149-3.082-2.6-3.082-2.6s-.316-1.382.07-1.6c.745-.419,4.361,2.818,4.361,2.818l4.124,1.873Z" transform="translate(-543.477 -291.603)"/><path class="v" d="M505.153,301.477l-4.871-.612s-.578-4.53-.121-6.7a5.452,5.452,0,0,1,1.976-2.277c.229-.135,1.959,1.41,1.959,1.41l.184-1.278c.519.354,1.04.269,1.673,1.287a4.277,4.277,0,0,1,.326,3.849A13.878,13.878,0,0,0,505.153,301.477Z" transform="translate(-488.506 -286.108)"/><path class="t" d="M546.229,227.622c-.068.083-.412-.151-.417.1-.026,1.282-.624,1.931-1.14,1.758s-.758-.579-1.071-.771a7.851,7.851,0,0,0,.28-1.08c.031-.259-.353-.956-.25-1.107.283-.414.4.013.687-.007,1.277-.091.549-1.5.838-1.632a3.837,3.837,0,0,1,.721,1.881C545.876,227.054,546.374,227.443,546.229,227.622Z" transform="translate(-529.013 -223.889)"/><path class="s" d="M485.51,429.616c-.814.612-4.469,1.257-5.818.167-1.117-.9-.408-2.84-.441-4.412-.035-1.683-.43-6.365,1.593-7.7.027-.018,1.327.168,1.357.172l3.511.459C486.492,418.733,485.941,429.293,485.51,429.616Z" transform="translate(-469.07 -402.933)"/><path class="t" d="M685.316,367.785c.175-.309.313-.5.53-.34.135.1.176.331,0,.641s-.406.423-.553.34S685.141,368.094,685.316,367.785Z" transform="translate(-660.511 -356.236)"/><path class="s" d="M526.57,735.078c.029.008.119,1.566.119,1.566l.158.007s.154-1.518.189-1.516c.464.03.6,1.52,1.2,1.52.013,0,.691,0,.7,0,.141-.125-.2-.393-.2-.393a1.375,1.375,0,0,1-.549-.262c-.424-.515-1.037-1.631-1.176-1.777a.729.729,0,0,0-.514-.184S526.3,735.006,526.57,735.078Z" transform="translate(-513.065 -696.767)"/><g transform="translate(0 6.693)"><path class="g" d="M365.137,318.37c.032-.37-1.407-13.546-1.407-13.546s-19.42,6.388-24.35,2.254c-.186-.156-.533,17.147-.533,17.147S364.55,325.072,365.137,318.37Z" transform="translate(-338.846 -304.824)"/><path class="h" d="M351.356,333.609c-2.258,0-3.775-.068-3.8-.069l-.35-.016.011-.351c0-.035.111-3.553.239-7.036.076-2.046.143-3.68.2-4.856.034-.7.065-1.245.092-1.619.046-.634.06-.825.281-.927l.2-.092.176.138c1.735,1.387,6.045,1.313,12.464-.212a93.765,93.765,0,0,0,9.394-2.808l.421-.155.055.445c0,.03.38,3.048.735,6.066.73,6.191.673,6.343.622,6.476h0c-.954,2.52-5.4,4.114-13.215,4.74C356.133,333.551,353.431,333.609,351.356,333.609Zm-3.42-.768a102.45,102.45,0,0,0,10.891-.22c9.278-.743,11.971-2.708,12.584-4.242.017-.678-.761-7.229-1.328-11.8-1.228.433-4.973,1.712-9.047,2.681-6.212,1.476-10.437,1.614-12.579.411C348.319,321.562,348.083,328.152,347.936,332.841Z" transform="translate(-346.607 -314.836)"/><g transform="translate(11.05 6.855)"><g transform="translate(0 0.508)"><path class="h" d="M494.615,414.13a3.02,3.02,0,0,0,1.575.2c.862-.128,1.3-.658,1.2-1.317-.091-.61-.491-.907-1.423-1.115-1.122-.22-1.862-.674-2-1.594a1.9,1.9,0,0,1,1.848-2.086,3,3,0,0,1,1.491.105l-.13.722a2.629,2.629,0,0,0-1.286-.126c-.891.132-1.151.715-1.085,1.161.091.61.532.852,1.485,1.066,1.168.262,1.809.712,1.951,1.671.15,1.007-.467,1.99-2.007,2.219a3.411,3.411,0,0,1-1.728-.169Z" transform="translate(-493.948 -408.175)"/></g><path class="h" d="M0,0H.71V1.052H0Z" transform="matrix(0.989, -0.147, 0.147, 0.989, 1.165, 0.104)"/><path class="h" d="M0,0H.71V1.052H0Z" transform="matrix(0.989, -0.147, 0.147, 0.989, 2.161, 6.807)"/></g><path class="h" d="M657.646,324.526a.814.814,0,1,1-1.49-.658,1.97,1.97,0,0,1,.854.181A1.618,1.618,0,0,1,657.646,324.526Z" transform="translate(-633.487 -322.504)"/><path class="h" d="M672.022,486.447a.974.974,0,1,1,.535-1.872,2.305,2.305,0,0,1-.069,1.044A1.89,1.89,0,0,1,672.022,486.447Z" transform="translate(-647.604 -471.732)"/><path class="h" d="M356.949,368.009a.814.814,0,1,1-1.369.881,1.427,1.427,0,0,1,.512-.81A1.121,1.121,0,0,1,356.949,368.009Z" transform="translate(-354.387 -363.457)"/><path class="h" d="M350.575,543.874a.814.814,0,0,1,1.18,1.123,1.427,1.427,0,0,1-.908-.307A1.123,1.123,0,0,1,350.575,543.874Z" transform="translate(-349.734 -526.609)"/><ellipse class="h" cx="2.351" cy="2.351" rx="2.351" ry="2.351" transform="translate(3.525 9.076)"/><ellipse class="h" cx="2.351" cy="2.351" rx="2.351" ry="2.351" transform="translate(18.127 6.954)"/><path class="t" d="M691.232,365.978c.032-.474.085-.79.442-.718.223.045.4.3.372.772s-.245.746-.47.731S691.2,366.453,691.232,365.978Z" transform="translate(-666.124 -360.945)"/></g><path class="t" d="M341.818,348.049a2.967,2.967,0,0,0-.6.03,1.476,1.476,0,0,0-.686.21c-.183.119-.24.612-.2.773.2.754.884-.025.884-.025l.6-.017Z" transform="translate(-340.215 -338.273)"/><path class="u" d="M354.2,296.807l.009-1,5.108-.78s6.78-3.443,7.492-3.224c.039.012-2.19,3.388-2.19,3.388l-4.453,1.558Z" transform="translate(-353.103 -286.031)"/></g></g></svg>